<svg width="33" height="28" viewBox="0 0 33 28" fill="none" xmlns="http://www.w3.org/2000/svg">
<g clip-path="url(#clip0_540_965)">
<path d="M0 14.8574H3.93117V27.5003H0V14.8574Z" fill="#9B51E0"/>
<path d="M13.7807 20.1504V22.0361C13.9117 22.0361 14.0209 22.0361 14.1301 22.0361C15.5279 22.0361 16.9474 22.0361 18.3452 22.0361C20.1142 22.0361 21.3373 21.2218 22.0361 19.6361C22.0798 19.529 22.189 19.4004 22.2982 19.3361C24.4822 17.9861 26.6662 16.6361 28.872 15.3075C30.2916 14.4504 31.9296 14.879 32.694 16.2718C33.2836 17.3433 32.9997 18.6933 31.9296 19.529C29.2433 21.5861 26.557 23.6433 23.8707 25.679C23.7833 25.7433 23.6304 25.7861 23.5212 25.7861C17.7337 25.7861 11.9461 25.7861 6.15856 25.7861C6.09304 25.7861 6.00568 25.7861 5.89648 25.7861V25.4433C5.89648 22.1861 5.89648 18.9075 5.89648 15.6504C5.89648 15.4147 5.98384 15.3075 6.1804 15.179C8.60462 13.8718 11.553 14.4504 13.322 16.529C13.4094 16.6361 13.6059 16.7218 13.7588 16.7218C15.3095 16.7218 16.8819 16.7218 18.4326 16.7218C19.4153 16.7218 20.0705 17.1933 20.2889 18.0075C20.551 18.9718 19.874 19.979 18.8694 20.1075C18.6728 20.129 18.4762 20.1504 18.3015 20.1504C16.9256 20.1504 15.5497 20.1504 14.1738 20.1504C14.0646 20.1504 13.9335 20.1504 13.8025 20.1504H13.7807Z" fill="#9B51E0"/>
<path d="M12.3174 7.74282C12.4047 3.67139 15.7681 0.435679 19.8303 0.499965C23.9799 0.564251 27.2122 3.88568 27.1685 7.82854C27.1248 12.0071 23.6304 15.1143 19.6774 15.0714C15.6589 15.0285 12.3392 11.8143 12.3392 7.74282H12.3174ZM20.7039 11.6428C20.7039 11.3857 20.7039 11.15 20.7039 10.9357C20.7039 10.7214 20.7476 10.6143 20.966 10.55C22.1672 10.1857 22.5603 9.09282 22.2327 8.04282C22.0361 7.42139 21.512 7.12139 20.9223 6.92854C20.42 6.73568 19.9176 6.58568 19.4153 6.39282C19.3061 6.34996 19.1969 6.15711 19.1969 6.02854C19.1969 5.94282 19.4153 5.79282 19.5245 5.79282C19.8303 5.79282 20.1142 5.83568 20.3981 5.92139C20.7476 6.02854 21.0533 6.19997 21.4028 6.32854C21.6648 5.85711 21.9051 5.38568 22.1672 4.89282C21.7522 4.74282 21.3809 4.54996 20.9878 4.44282C20.7257 4.35711 20.6384 4.24996 20.6602 3.99282C20.682 3.73568 20.6602 3.49996 20.6602 3.22139H18.7165C18.7165 3.52139 18.7165 3.79996 18.7165 4.07854C18.7165 4.29282 18.6509 4.39997 18.4762 4.48568C18.2141 4.63568 17.9521 4.80711 17.7555 5.02139C16.8819 5.98568 17.1877 7.37854 18.367 7.93568C18.6291 8.06425 18.913 8.14996 19.1751 8.23568C19.4809 8.34282 19.7866 8.42854 20.0705 8.55711C20.2016 8.62139 20.2671 8.79282 20.3544 8.92139C20.2234 8.98568 20.0705 9.13568 19.9395 9.13568C19.5901 9.13568 19.2406 9.07139 18.8912 8.96425C18.4981 8.83568 18.1268 8.64282 17.7337 8.47139C17.4716 8.98568 17.2313 9.47854 16.9474 10.0357C17.4934 10.2285 17.9739 10.4 18.4762 10.5714C18.6509 10.6142 18.6946 10.6785 18.6946 10.85C18.6946 11.1285 18.6946 11.3857 18.6946 11.6643H20.6384L20.7039 11.6428Z" fill="#9B51E0"/>
</g>
<defs>
<clipPath id="clip0_540_965">
<rect width="33" height="27" fill="white" transform="translate(0 0.5)"/>
</clipPath>
</defs>
</svg>
