<svg width="14" height="14" viewBox="0 0 14 14" fill="none" xmlns="http://www.w3.org/2000/svg">
<g clip-path="url(#clip0_1682_23)">
<path d="M7.91675 0.0598452C6.47627 -0.130631 5.08341 0.131274 3.88103 0.726512C1.86913 1.73842 0.381031 3.6908 0.0596027 6.08365C-0.261826 8.47651 0.67865 10.7503 2.35722 12.2384C3.36913 13.1313 4.64294 13.7503 6.08341 13.9408C9.91675 14.4527 13.4286 11.7503 13.9406 7.92889C14.4406 4.08365 11.7501 0.57175 7.91675 0.0598452ZM10.3691 5.48842L6.26198 9.59556C6.11913 9.73842 5.91675 9.82175 5.71437 9.82175C5.51198 9.82175 5.3096 9.73842 5.16675 9.59556L3.64294 8.04794C3.34532 7.73842 3.34532 7.25032 3.64294 6.9527C3.95246 6.65508 4.44056 6.65508 4.73817 6.9527L5.71437 7.9527L9.27389 4.39318C9.57151 4.09556 10.0596 4.09556 10.3691 4.39318C10.6667 4.6908 10.6667 5.17889 10.3691 5.48842Z" fill="#6FCF97"/>
</g>
<defs>
<clipPath id="clip0_1682_23">
<rect width="14" height="14" fill="white"/>
</clipPath>
</defs>
</svg>
