<svg width="72" height="51" viewBox="0 0 72 51" fill="none" xmlns="http://www.w3.org/2000/svg">
<g clip-path="url(#clip0_2800_3002)">
<path d="M54.4507 17.3955L49.3808 0.726267L35.621 2.89931L23.3101 0.725159L13.8959 3.6244L6.65376 9.42288L1.58496 19.5708V31.8928L6.65376 41.3167L15.3447 47.1152L26.9312 49.2882L35.621 46.3901L45.7597 49.2894L58.795 46.3901L67.486 37.6913L69.6571 31.1677L70.3826 23.1951L61.6917 21.7449L54.4507 17.3966V17.3955Z" fill="#EAB789" stroke="black" stroke-width="1.10769"/>
<path fill-rule="evenodd" clip-rule="evenodd" d="M35.7625 4.15649C28.0751 8.20323 22.8136 16.4109 22.8136 25.877C22.8136 34.8984 27.5911 42.7757 34.6925 46.9998C31.6685 48.4176 28.3694 49.1509 25.0301 49.1474C12.1831 49.1474 1.76855 38.4751 1.76855 25.3104C1.76855 12.1446 12.1831 1.47345 25.0301 1.47345C28.9015 1.47345 32.5513 2.44245 35.7625 4.15649Z" fill="#9C6750"/>
<path d="M71.4147 22.5121C71.3985 22.3627 71.3505 22.2185 71.2742 22.0891C71.1979 21.9596 71.0948 21.848 70.972 21.7615C70.8492 21.6751 70.7093 21.6158 70.5618 21.5877C70.4143 21.5596 70.2625 21.5633 70.1165 21.5986C69.3558 21.7818 68.5627 21.7836 67.8011 21.6037C67.0396 21.4239 66.3309 21.0674 65.7323 20.563C65.5694 20.4242 65.3681 20.3382 65.1553 20.3164C64.9424 20.2946 64.728 20.3381 64.5404 20.4411C64.0309 20.7205 63.4582 20.8657 62.8766 20.8646C62.1539 20.8632 61.4493 20.6374 60.8601 20.2184C60.2709 19.7995 59.826 19.2079 59.5868 18.5252C59.5182 18.3308 59.3943 18.1607 59.2304 18.0358C59.0664 17.9109 58.8696 17.8367 58.6641 17.8223C57.402 17.7289 56.2214 17.1625 55.3581 16.2363C54.4947 15.3101 54.012 14.0922 54.0062 12.8254C54.0085 12.5704 54.0306 12.3154 54.0727 12.0638C54.097 11.9134 54.0885 11.7595 54.0478 11.6127C54.0071 11.4659 53.9351 11.3297 53.8368 11.2134C53.3873 10.6864 53.0872 10.0485 52.9676 9.36609C52.848 8.68365 52.9132 7.98159 53.1566 7.33296C53.2413 7.10598 53.2455 6.85676 53.1685 6.62705C53.0914 6.39735 52.9379 6.20113 52.7335 6.07127C52.0111 5.61688 51.4575 4.938 51.1574 4.13862C50.8573 3.33924 50.8273 2.46344 51.072 1.64536C51.1178 1.50032 51.1318 1.34706 51.1129 1.19611C51.0941 1.04515 51.0428 0.900075 50.9626 0.770836C50.8824 0.641597 50.7752 0.531257 50.6484 0.447392C50.5216 0.363528 50.3781 0.308124 50.2279 0.284986C45.3088 -0.463951 40.2784 0.270557 35.7781 2.39483C32.4399 0.81138 28.7907 -0.00639041 25.0966 0.00115976C21.336 0.000868806 17.6233 0.846588 14.2332 2.47579C10.8431 4.10499 7.86222 6.47602 5.5109 9.41357C3.15957 12.3511 1.49796 15.7801 0.648905 19.4469C-0.200149 23.1138 -0.214929 26.9247 0.605655 30.5981C1.42624 34.2714 3.06121 37.7131 5.38968 40.6689C7.71814 43.6246 10.6806 46.0187 14.0579 47.6742C17.4353 49.3297 21.1412 50.2043 24.9018 50.2332C28.6623 50.2621 32.3812 49.4447 35.7836 47.8414C39.8072 49.7377 44.2622 50.5291 48.6921 50.1345C53.122 49.74 57.3674 48.1736 60.9932 45.5959C64.6191 43.0183 67.495 39.5221 69.3263 35.4656C71.1576 31.4091 71.8783 26.9382 71.4147 22.511V22.5121ZM25.0966 48.1174C22.0787 48.1174 19.0904 47.5225 16.3022 46.3666C13.5141 45.2106 10.9807 43.5163 8.84674 41.3804C6.71278 39.2445 5.02003 36.7089 3.86514 33.9182C2.71025 31.1275 2.11584 28.1365 2.11584 25.1159C2.11584 22.0953 2.71025 19.1043 3.86514 16.3136C5.02003 13.5229 6.71278 10.9872 8.84674 8.85133C10.9807 6.71544 13.5141 5.02116 16.3022 3.86522C19.0904 2.70929 22.0787 2.11433 25.0966 2.11433C27.9389 2.1099 30.7569 2.63875 33.4054 3.67427C29.7285 5.91396 26.6894 9.06319 24.5806 12.8189C22.4718 16.5746 21.3643 20.8103 21.3647 25.1185C21.365 29.4267 22.4732 33.6622 24.5825 37.4176C26.6919 41.173 29.7315 44.3217 33.4087 46.5608C30.7591 47.5935 27.94 48.1215 25.0966 48.1174ZM46.4595 48.1174C43.3438 48.1149 40.2611 47.4782 37.3989 46.2461C34.5367 45.0139 31.9547 43.2121 29.8098 40.9501C27.665 38.6881 26.0021 36.0131 24.9223 33.0878C23.8425 30.1626 23.3683 27.048 23.5285 23.9336C23.6888 20.8192 24.4801 17.7699 25.8544 14.9711C27.2287 12.1723 29.1572 9.68247 31.5229 7.65292C33.8885 5.62337 36.6417 4.09651 39.6153 3.16516C42.5888 2.2338 45.7205 1.9174 48.82 2.23518C48.734 3.19972 48.8823 4.17077 49.2522 5.06555C49.6222 5.96034 50.2028 6.75232 50.9446 7.37399C50.8469 7.80397 50.7975 8.24351 50.7973 8.68446C50.7983 9.94425 51.1934 11.1721 51.9271 12.1957C51.9065 12.405 51.8961 12.6151 51.8961 12.8254C51.9015 14.513 52.5025 16.1444 53.5929 17.4316C54.6833 18.7187 56.193 19.5789 57.8555 19.8601C58.4754 21.1202 59.5457 22.1013 60.8541 22.6089C62.1626 23.1165 63.6139 23.1136 64.9203 22.6008C66.2339 23.5073 67.8142 23.9447 69.4065 23.8426C69.5763 26.9651 69.1089 30.0895 68.0328 33.0253C66.9566 35.9611 65.2942 38.6467 63.147 40.9184C60.9999 43.19 58.4129 45.0001 55.5438 46.2382C52.6748 47.4763 49.5839 48.1165 46.4595 48.1197V48.1174Z" fill="#634647"/>
<path d="M60.8808 38.0283C60.01 39.0008 59.0445 39.884 57.9986 40.6648C57.7739 40.8324 57.6249 41.0825 57.5843 41.3601C57.5438 41.6376 57.6152 41.9199 57.7826 42.1449C57.9501 42.3698 58.1999 42.519 58.4773 42.5595C58.7546 42.6001 59.0366 42.5287 59.2614 42.3611C60.4206 41.4963 61.4907 40.5181 62.456 39.4408C62.6338 39.2304 62.7227 38.9588 62.7037 38.6839C62.6847 38.4089 62.5593 38.1522 62.3542 37.9683C62.1492 37.7844 61.8805 37.6878 61.6054 37.699C61.3302 37.7102 61.0703 37.8283 60.8808 38.0283Z" fill="#644647"/>
<path d="M49.2924 36.3974C48.7252 36.3974 47.5489 36.6357 47.077 36.9517C46.6051 37.2666 46.6981 37.2433 46.4821 37.7677C46.3184 38.1602 46.2438 38.5842 46.2638 39.009C46.2837 39.4339 46.3977 39.849 46.5975 40.2243C46.7973 40.5997 47.0779 40.926 47.4191 41.1795C47.7602 41.4331 48.1534 41.6077 48.5702 41.6906C48.9869 41.7735 49.4169 41.7627 49.829 41.659C50.2411 41.5553 50.6251 41.3613 50.9531 41.091C51.2811 40.8206 51.5451 40.4807 51.7259 40.0958C51.9067 39.7109 51.9998 39.2906 51.9985 38.8653C51.9985 38.1048 51.4911 37.4894 50.9539 36.9517C50.4167 36.4129 50.0522 36.3974 49.2924 36.3974ZM15.0469 33.6256C14.7191 33.6256 14.0367 33.7742 13.7631 33.9704C13.4906 34.1667 13.5449 34.1523 13.4197 34.4793C13.2935 34.8084 13.2605 35.166 13.3245 35.5126C13.3887 35.8586 13.546 36.1779 13.7786 36.4273C14.0112 36.6779 14.307 36.8486 14.6293 36.9174C14.9517 36.9861 15.2862 36.9506 15.5897 36.8154C15.8932 36.6801 16.1524 36.4506 16.3352 36.1568C16.5191 35.8582 16.6162 35.5142 16.6154 35.1634C16.6154 34.6889 16.3208 34.3053 16.0095 33.9704C15.6983 33.6356 15.4878 33.6267 15.0469 33.6256ZM34.7694 21.0142C34.611 20.4687 34.0527 19.4055 33.6174 19.0407C33.1832 18.6749 33.2319 18.758 32.6681 18.6971C32.2473 18.6519 31.8217 18.7006 31.4219 18.8396C31.022 18.9786 30.658 19.2045 30.3557 19.5011C30.0535 19.7976 29.8206 20.1575 29.6738 20.5548C29.527 20.9522 29.4699 21.3771 29.5067 21.7991C29.5434 22.2212 29.6731 22.6298 29.8863 22.9957C30.0996 23.3617 30.3912 23.6758 30.7401 23.9156C31.089 24.1553 31.4867 24.3148 31.9045 24.3825C32.3223 24.4501 32.7499 24.4244 33.1566 24.3071C33.8877 24.092 34.3352 23.4334 34.7018 22.766C35.0674 22.0996 34.981 21.746 34.7683 21.0142H34.7694ZM10.4002 23.2316C10.2418 22.6861 9.68349 21.6229 9.24817 21.2581C8.81506 20.8923 8.8638 20.9754 8.29999 20.9144C7.8786 20.8683 7.45222 20.9162 7.05155 21.0547C6.65088 21.1933 6.28587 21.419 5.98281 21.7156C5.67974 22.0123 5.44615 22.3725 5.29884 22.7703C5.15153 23.1682 5.09418 23.5938 5.1309 24.0165C5.16762 24.4392 5.29751 24.8485 5.51121 25.2149C5.72492 25.5813 6.01713 25.8958 6.3668 26.1356C6.71648 26.3755 7.11494 26.5347 7.53348 26.602C7.95203 26.6692 8.38027 26.6427 8.78737 26.5244C9.51845 26.3094 9.96596 25.6508 10.3326 24.9834C10.6981 24.317 10.6117 23.9634 10.3991 23.2316H10.4002ZM42.2164 8.12564C41.7789 8.12564 40.8695 8.3241 40.505 8.58575C40.1417 8.8474 40.2137 8.82744 40.0453 9.26316C39.8781 9.69888 39.8349 10.1789 39.9191 10.6413C40.0055 11.1036 40.2159 11.5282 40.5261 11.8608C40.8362 12.1946 41.2306 12.4218 41.6604 12.515C42.0901 12.6059 42.5354 12.5593 42.9397 12.3786C43.3452 12.1979 43.6908 11.893 43.9344 11.5005C44.1781 11.108 44.3077 10.6468 44.3077 10.1756C44.3077 9.54366 43.9156 9.03255 43.4991 8.58575C43.0849 8.13894 42.8035 8.12564 42.2164 8.12564ZM21.034 8.90505C21.0595 8.57688 20.9653 7.88505 20.7914 7.59679C20.6175 7.30853 20.6275 7.36397 20.3129 7.21208C19.9952 7.06032 19.6418 6.99932 19.2916 7.03579C18.9458 7.07034 18.617 7.20262 18.3434 7.41718C18.0798 7.62352 17.886 7.90611 17.7885 8.22653C17.6943 8.54251 17.7032 8.87955 17.814 9.19331C17.9247 9.50597 18.1319 9.78314 18.4099 9.98936C18.6927 10.1965 19.0276 10.3205 19.3769 10.3475C19.8499 10.3841 20.2553 10.1213 20.6131 9.83747C20.972 9.55364 20.9975 9.3441 21.034 8.90505Z" fill="#845556" stroke="#644647" stroke-width="1.99385"/>
<path d="M16.645 17.3012C16.4803 17.078 16.2345 16.9285 15.9607 16.885C15.6869 16.8415 15.407 16.9075 15.1813 17.0686C14.9556 17.2298 14.8022 17.4733 14.7542 17.7466C14.7062 18.0199 14.7675 18.3011 14.9248 18.5297L16.4002 20.5952C16.5431 20.7925 16.7497 20.9345 16.9851 20.9971C17.2205 21.0597 17.4702 21.0391 17.6922 20.9388C17.9141 20.8385 18.0947 20.6646 18.2034 20.4464C18.3121 20.2283 18.3423 19.9793 18.2888 19.7415C18.2576 19.6059 18.2 19.4778 18.1194 19.3645L16.645 17.3012Z" fill="#634647"/>
<path d="M47.9744 25.7328C48.0552 25.8458 48.1573 25.9419 48.2752 26.0154C48.393 26.0889 48.5241 26.1385 48.6611 26.1613C48.798 26.1841 48.9381 26.1797 49.0734 26.1483C49.2086 26.1169 49.3364 26.0592 49.4493 25.9783C49.5623 25.8975 49.6582 25.7953 49.7317 25.6773C49.8051 25.5594 49.8547 25.4282 49.8775 25.2911C49.9002 25.154 49.8958 25.0138 49.8645 24.8784C49.8331 24.743 49.7754 24.6152 49.6947 24.5021L48.2923 22.5375C48.2116 22.4245 48.1094 22.3286 47.9916 22.2551C47.8739 22.1817 47.7428 22.1321 47.6059 22.1094C47.469 22.0866 47.3289 22.0911 47.1937 22.1225C47.0586 22.1539 46.9309 22.2117 46.818 22.2925C46.7051 22.3733 46.6092 22.4756 46.5358 22.5935C46.4625 22.7113 46.413 22.8426 46.3902 22.9796C46.3675 23.1166 46.372 23.2568 46.4034 23.3921C46.4348 23.5274 46.4925 23.6552 46.5732 23.7682L47.9755 25.7328H47.9744Z" fill="#644647"/>
<path d="M21.7901 39.219C21.5101 39.219 21.2414 39.3303 21.0433 39.5284C20.8452 39.7265 20.7337 39.9953 20.7334 40.2756V42.8954C20.7423 43.1699 20.8574 43.4301 21.0545 43.6211C21.2517 43.8121 21.5152 43.9189 21.7896 43.9189C22.0639 43.9189 22.3275 43.8121 22.5246 43.6211C22.7217 43.4301 22.8369 43.1699 22.8458 42.8954V40.2767C22.8458 39.9964 22.7346 39.7275 22.5366 39.5292C22.3387 39.3309 22.0702 39.2193 21.7901 39.219Z" fill="#634647"/>
<path d="M36.6966 32.3517L33.5917 33.5325C33.3952 33.6059 33.225 33.7363 33.1028 33.9069C32.9807 34.0776 32.912 34.2808 32.9057 34.4906C32.8995 34.7005 32.9557 34.9074 33.0675 35.0851C33.1792 35.2628 33.3412 35.4031 33.533 35.4882C33.7887 35.603 34.0794 35.6118 34.3416 35.5126L37.4465 34.3319C37.7084 34.2323 37.92 34.0327 38.0349 33.777C38.1498 33.5212 38.1585 33.2303 38.059 32.9682C37.9596 32.706 37.7602 32.4942 37.5047 32.3792C37.2491 32.2642 36.9585 32.2555 36.6966 32.3551V32.3517ZM63.6943 28.3294L61.294 29.2418C61.0987 29.3164 60.9297 29.4471 60.8085 29.6176C60.6873 29.7881 60.6192 29.9906 60.6128 30.1998C60.6064 30.4089 60.662 30.6152 60.7726 30.7928C60.8832 30.9704 61.0438 31.1112 61.2342 31.1976C61.3608 31.2544 61.4974 31.2857 61.6362 31.2897C61.7749 31.2937 61.9131 31.2703 62.0428 31.2209L64.4454 30.3084C64.5751 30.259 64.6939 30.1846 64.7949 30.0893C64.8959 29.994 64.9772 29.8797 65.034 29.753C65.0909 29.6262 65.1223 29.4895 65.1264 29.3507C65.1305 29.2118 65.1072 29.0735 65.0579 28.9436C65.0086 28.8137 64.9342 28.6948 64.839 28.5937C64.7438 28.4927 64.6296 28.4113 64.503 28.3544C64.3764 28.2974 64.2398 28.266 64.101 28.2619C63.9623 28.2578 63.8241 28.2811 63.6943 28.3305V28.3294Z" fill="#644647"/>
</g>
<defs>
<clipPath id="clip0_2800_3002">
<rect width="72" height="51" fill="white"/>
</clipPath>
</defs>
</svg>
