<svg width="36" height="36" viewBox="0 0 36 36" fill="none" xmlns="http://www.w3.org/2000/svg">
<path d="M17.2045 24.8874C17.6438 25.3267 18.3562 25.3267 18.7955 24.8874L25.955 17.7279C26.3943 17.2886 26.3943 16.5763 25.955 16.1369C25.5156 15.6976 24.8033 15.6976 24.364 16.1369L18 22.5009L11.636 16.1369C11.1967 15.6976 10.4844 15.6976 10.045 16.1369C9.60571 16.5763 9.60571 17.2886 10.045 17.7279L17.2045 24.8874ZM18 5L16.875 5L16.875 24.0919L18 24.0919L19.125 24.0919L19.125 5L18 5Z" fill="#333333"/>
<rect x="7" y="28" width="22" height="2" fill="#333333"/>
</svg>
