<svg width="36" height="43" viewBox="0 0 36 43" fill="none" xmlns="http://www.w3.org/2000/svg">
<g clip-path="url(#clip0_540_1000)">
<path fill-rule="evenodd" clip-rule="evenodd" d="M14.0018 2.21659C15.0467 2.3149 15.0558 0.268136 17.9998 0C20.9528 0.268136 20.9528 2.3149 21.9978 2.21659C23.7969 2.05571 28.1492 0.143005 26.4592 4.69237C26.2593 5.22864 25.4324 6.471 24.5419 7.46311C24.0513 7.19497 23.4879 7.04303 22.8973 7.04303H13.1113C12.5117 7.04303 11.9574 7.19497 11.4576 7.45417C10.5672 6.46207 9.74032 5.2197 9.54043 4.68343C7.85037 0.143005 12.2027 2.05571 14.0018 2.21659Z" fill="#9B51E0"/>
<path fill-rule="evenodd" clip-rule="evenodd" d="M21.7066 30.0135C21.7338 30.5945 21.543 31.1755 21.1886 31.676C20.8615 32.1408 20.389 32.5519 19.8075 32.829C19.5985 32.9362 19.3623 33.0167 19.1261 33.0792V34.0266C19.1261 34.6344 18.6263 35.126 17.9993 35.126C17.3724 35.126 16.8817 34.6344 16.8817 34.0266V33.0792C16.2003 32.9094 15.4734 32.5787 14.7374 32.0424C14.2467 31.676 14.1467 30.9878 14.5193 30.4962C14.8827 30.0135 15.5915 29.9152 16.0821 30.2817C16.7909 30.8001 17.4451 31.0146 17.9903 31.0235H18.0266C18.3355 31.0235 18.599 30.952 18.8262 30.8448C19.0534 30.7375 19.2351 30.5945 19.3441 30.4336C19.435 30.3085 19.4804 30.1923 19.4804 30.0851C19.4713 29.9778 19.3623 29.8437 19.0988 29.7365L19.0534 29.7186C18.7717 29.6024 18.4264 29.522 18.0811 29.4326C17.5269 29.2896 16.9544 29.1376 16.4274 28.8874C15.6823 28.512 15.1644 28.0025 14.8827 27.4037C14.5556 26.7423 14.5375 26.0094 14.8191 25.2944C14.9827 24.8743 15.2098 24.5346 15.4824 24.2576C15.8731 23.8554 16.3547 23.5872 16.8726 23.4442V22.4968C16.8726 21.889 17.3724 21.3975 17.9993 21.3975C18.6263 21.3975 19.117 21.889 19.117 22.4968V23.4532C19.2714 23.4979 19.4259 23.5515 19.5804 23.6051C20.0983 23.8107 20.5799 24.0967 20.9524 24.4453C21.3885 24.8743 21.3976 25.5714 20.9706 26.0094C20.5435 26.4384 19.8348 26.4563 19.3896 26.0273C19.226 25.8753 19.017 25.7502 18.7717 25.6608C18.5354 25.5714 18.2901 25.5178 18.0448 25.5089H17.9993C17.9993 25.5089 17.9357 25.5089 17.9085 25.4999C17.854 25.5089 17.8085 25.5089 17.754 25.5178C17.4814 25.5446 17.2452 25.6251 17.0907 25.7859C17.0089 25.8664 16.9544 25.9647 16.909 26.072C16.8454 26.215 16.8454 26.349 16.8999 26.4652C16.9726 26.6172 17.1543 26.778 17.436 26.9211C17.754 27.073 18.1992 27.1892 18.6445 27.3054C19.0806 27.4126 19.5077 27.5199 19.8893 27.6718C19.9166 27.6718 19.9347 27.6897 19.9529 27.6986C21.1432 28.1992 21.6793 29.0751 21.7066 30.0135Z" fill="#9B51E0"/>
<path fill-rule="evenodd" clip-rule="evenodd" d="M24.8144 13.1924C24.2601 13.5588 23.5968 13.7733 22.8881 13.7733H22.6518C23.4151 14.7923 23.824 15.9542 23.8694 17.268C23.8876 17.8669 23.3969 18.3853 22.7881 18.3942C22.1703 18.421 21.6523 17.9384 21.6342 17.3306C21.5978 16.4458 21.3162 15.6682 20.7801 14.9978C20.4257 14.5509 19.9532 14.1398 19.3626 13.7733H17.2273C16.4095 14.104 15.7735 14.4973 15.301 14.9442C14.6377 15.5699 14.3288 16.3385 14.3651 17.2502C14.3833 17.8579 13.9108 18.3674 13.2929 18.3942C12.6751 18.421 12.1571 17.9473 12.1299 17.3395C12.0754 15.9631 12.4752 14.7744 13.3474 13.7733H13.1021C12.3934 13.7733 11.7301 13.5588 11.1849 13.1924C-2.19925 22.2285 -5.87012 42.446 13.093 42.9465C16.0279 43.018 19.9532 43.018 22.8881 42.9465C41.8694 42.4638 38.1985 22.2285 24.8144 13.1924ZM17.9996 36.4308C13.4111 36.4308 9.69475 32.7752 9.69475 28.2616C9.69475 23.748 13.4111 20.0924 17.9996 20.0924C22.5882 20.0924 26.3045 23.7569 26.3045 28.2616C26.3045 32.7663 22.5791 36.4308 17.9996 36.4308Z" fill="#9B51E0"/>
<path fill-rule="evenodd" clip-rule="evenodd" d="M21.7066 30.0135C21.7338 30.5945 21.543 31.1755 21.1886 31.676C20.8615 32.1408 20.389 32.5519 19.8075 32.829C19.5985 32.9362 19.3623 33.0167 19.1261 33.0792V34.0266C19.1261 34.6344 18.6263 35.126 17.9993 35.126C17.3724 35.126 16.8817 34.6344 16.8817 34.0266V33.0792C16.2003 32.9094 15.4734 32.5787 14.7374 32.0424C14.2467 31.676 14.1467 30.9878 14.5193 30.4962C14.8827 30.0135 15.5915 29.9152 16.0821 30.2817C16.7909 30.8001 17.4451 31.0146 17.9903 31.0235H18.0266C18.3355 31.0235 18.599 30.952 18.8262 30.8448C19.0534 30.7375 19.2351 30.5945 19.3441 30.4336C19.435 30.3085 19.4804 30.1923 19.4804 30.0851C19.4713 29.9778 19.3623 29.8437 19.0988 29.7365L19.0534 29.7186C18.7717 29.6024 18.4264 29.522 18.0811 29.4326C17.5269 29.2896 16.9544 29.1376 16.4274 28.8874C15.6823 28.512 15.1644 28.0025 14.8827 27.4037C14.5556 26.7423 14.5375 26.0094 14.8191 25.2944C14.9827 24.8743 15.2098 24.5346 15.4824 24.2576C15.8731 23.8554 16.3547 23.5872 16.8726 23.4442V22.4968C16.8726 21.889 17.3724 21.3975 17.9993 21.3975C18.6263 21.3975 19.117 21.889 19.117 22.4968V23.4532C19.2714 23.4979 19.4259 23.5515 19.5804 23.6051C20.0983 23.8107 20.5799 24.0967 20.9524 24.4453C21.3885 24.8743 21.3976 25.5714 20.9706 26.0094C20.5435 26.4384 19.8348 26.4563 19.3896 26.0273C19.226 25.8753 19.017 25.7502 18.7717 25.6608C18.5354 25.5714 18.2901 25.5178 18.0448 25.5089H17.9993C17.9993 25.5089 17.9357 25.5089 17.9085 25.4999C17.854 25.5089 17.8085 25.5089 17.754 25.5178C17.4814 25.5446 17.2452 25.6251 17.0907 25.7859C17.0089 25.8664 16.9544 25.9647 16.909 26.072C16.8454 26.215 16.8454 26.349 16.8999 26.4652C16.9726 26.6172 17.1543 26.778 17.436 26.9211C17.754 27.073 18.1992 27.1892 18.6445 27.3054C19.0806 27.4126 19.5077 27.5199 19.8893 27.6718C19.9166 27.6718 19.9347 27.6897 19.9529 27.6986C21.1432 28.1992 21.6793 29.0751 21.7066 30.0135Z" fill="#9B51E0"/>
<path fill-rule="evenodd" clip-rule="evenodd" d="M21.7066 30.0135C21.7338 30.5945 21.543 31.1755 21.1886 31.676C20.8615 32.1408 20.389 32.5519 19.8075 32.829C19.5985 32.9362 19.3623 33.0167 19.1261 33.0792V34.0266C19.1261 34.6344 18.6263 35.126 17.9993 35.126C17.3724 35.126 16.8817 34.6344 16.8817 34.0266V33.0792C16.2003 32.9094 15.4734 32.5787 14.7374 32.0424C14.2467 31.676 14.1467 30.9878 14.5193 30.4962C14.8827 30.0135 15.5915 29.9152 16.0821 30.2817C16.7909 30.8001 17.4451 31.0146 17.9903 31.0235H18.0266C18.3355 31.0235 18.599 30.952 18.8262 30.8448C19.0534 30.7375 19.2351 30.5945 19.3441 30.4336C19.435 30.3085 19.4804 30.1923 19.4804 30.0851C19.4713 29.9778 19.3623 29.8437 19.0988 29.7365L19.0534 29.7186C18.7717 29.6024 18.4264 29.522 18.0811 29.4326C17.5269 29.2896 16.9544 29.1376 16.4274 28.8874C15.6823 28.512 15.1644 28.0025 14.8827 27.4037C14.5556 26.7423 14.5375 26.0094 14.8191 25.2944C14.9827 24.8743 15.2098 24.5346 15.4824 24.2576C15.8731 23.8554 16.3547 23.5872 16.8726 23.4442V22.4968C16.8726 21.889 17.3724 21.3975 17.9993 21.3975C18.6263 21.3975 19.117 21.889 19.117 22.4968V23.4532C19.2714 23.4979 19.4259 23.5515 19.5804 23.6051C20.0983 23.8107 20.5799 24.0967 20.9524 24.4453C21.3885 24.8743 21.3976 25.5714 20.9706 26.0094C20.5435 26.4384 19.8348 26.4563 19.3896 26.0273C19.226 25.8753 19.017 25.7502 18.7717 25.6608C18.5354 25.5714 18.2901 25.5178 18.0448 25.5089H17.9993C17.9993 25.5089 17.9357 25.5089 17.9085 25.4999C17.854 25.5089 17.8085 25.5089 17.754 25.5178C17.4814 25.5446 17.2452 25.6251 17.0907 25.7859C17.0089 25.8664 16.9544 25.9647 16.909 26.072C16.8454 26.215 16.8454 26.349 16.8999 26.4652C16.9726 26.6172 17.1543 26.778 17.436 26.9211C17.754 27.073 18.1992 27.1892 18.6445 27.3054C19.0806 27.4126 19.5077 27.5199 19.8893 27.6718C19.9166 27.6718 19.9347 27.6897 19.9529 27.6986C21.1432 28.1992 21.6793 29.0751 21.7066 30.0135Z" fill="#9B51E0"/>
<path fill-rule="evenodd" clip-rule="evenodd" d="M13.1019 11.566H22.8878C23.533 11.566 24.0691 11.0476 24.0691 10.4041C24.0691 9.76058 23.5421 9.24219 22.8878 9.24219H13.1019C12.4567 9.24219 11.9207 9.76952 11.9207 10.4041C11.9207 11.0387 12.4567 11.5571 13.1019 11.5571V11.566Z" fill="#9B51E0"/>
</g>
<defs>
<clipPath id="clip0_540_1000">
<rect width="36" height="43" fill="white" transform="translate(-0.000244141)"/>
</clipPath>
</defs>
</svg>
