<svg width="18" height="18" viewBox="0 0 18 18" fill="none" xmlns="http://www.w3.org/2000/svg">
<g clip-path="url(#clip0_1315_101)">
<path d="M11.9529 0C12.2575 0.141026 12.3473 0.38141 12.3441 0.708333C12.3345 2.48718 12.3377 4.26923 12.3377 6.04808C12.3377 6.48077 12.1389 6.67949 11.7029 6.67949C9.89772 6.67949 8.0958 6.67949 6.29067 6.67949C5.85462 6.67949 5.65583 6.48077 5.65583 6.04808C5.65583 4.26923 5.66224 2.48718 5.64941 0.708333C5.64941 0.38141 5.73598 0.141026 6.04058 0H11.9465L11.9529 0Z" fill="white"/>
<path d="M0 13.1089C0.141076 12.8044 0.381546 12.7147 0.708586 12.7179C2.01995 12.7307 3.33131 12.7243 4.64268 12.7243C5.07553 12.7243 5.27431 12.923 5.27431 13.3589C5.27431 14.6922 5.27431 16.0288 5.27431 17.3621C5.27431 17.798 5.07553 17.9967 4.64268 17.9967C3.33131 17.9967 2.01995 17.9903 0.708586 18.0031C0.381546 18.0031 0.141076 17.9134 0 17.6121V13.1153L0 13.1089Z" fill="white"/>
<path d="M6.3645 15.3558C6.3645 14.6763 6.3645 13.9968 6.3645 13.3206C6.3645 12.9327 6.57291 12.7212 6.96087 12.7212C8.32353 12.7212 9.6894 12.7212 11.0521 12.7212C11.4272 12.7212 11.6356 12.9359 11.6388 13.3109C11.6388 14.6731 11.6388 16.0385 11.6388 17.4007C11.6388 17.7757 11.4272 17.9904 11.0521 17.9904C9.6894 17.9904 8.32353 17.9904 6.96087 17.9904C6.57612 17.9904 6.36771 17.7789 6.36771 17.3911C6.36771 16.7116 6.36771 16.0321 6.36771 15.3558H6.3645Z" fill="white"/>
<path d="M18.0001 15.3558C18.0001 16.0353 18.0001 16.7148 18.0001 17.3911C18.0001 17.7789 17.7917 17.9904 17.407 17.9904C16.0443 17.9904 14.6784 17.9904 13.3158 17.9904C12.9406 17.9904 12.729 17.7757 12.729 17.4007C12.729 16.0385 12.729 14.6731 12.729 13.3109C12.729 12.9359 12.9406 12.7212 13.3158 12.7212C14.6848 12.7212 16.0571 12.7212 17.4262 12.7212C17.7885 12.7212 18.0033 12.9359 18.0033 13.3013C18.0033 13.9872 18.0033 14.6699 18.0033 15.3558H18.0001Z" fill="white"/>
<path d="M8.47733 7.7373H9.52258V9.1732H9.74701C11.5874 9.1732 13.4278 9.1732 15.265 9.1732C15.6882 9.1732 15.8902 9.37192 15.8902 9.795C15.8902 10.3559 15.8902 10.92 15.8902 11.4809C15.8902 11.5386 15.8902 11.5931 15.8902 11.6604H14.8418V10.2373H9.5354V11.6572H8.47733V10.2405H3.16775V11.6604H2.13533C2.13533 11.6604 2.11609 11.6444 2.11609 11.6347C2.11609 10.9777 2.10647 10.3238 2.11609 9.66679C2.1193 9.38154 2.35656 9.17961 2.65474 9.17641C3.05873 9.1732 3.46273 9.17641 3.86672 9.17641C5.33198 9.17641 6.79725 9.17641 8.26251 9.17641H8.47733V7.74051V7.7373Z" fill="white"/>
</g>
<defs>
<clipPath id="clip0_1315_101">
<rect width="18" height="18" fill="white"/>
</clipPath>
</defs>
</svg>
