<svg width="33" height="33" viewBox="0 0 33 33" fill="none" xmlns="http://www.w3.org/2000/svg">
<rect width="33" height="33" rx="16.5" fill="#333333"/>
<g clip-path="url(#clip0_1315_69)">
<path d="M8 16.0011C8.04285 15.7018 8.07855 15.4001 8.1333 15.1008C8.26183 14.3738 8.4951 13.6778 8.79978 13.0078C8.8093 12.9888 8.82358 12.9722 8.84262 12.9461C9.33296 13.4354 9.81854 13.9177 10.297 14.4094C10.3351 14.4475 10.3303 14.552 10.3113 14.6138C10.0994 15.3074 9.99468 16.0177 10.0304 16.7423C10.1185 18.4932 10.7873 19.9874 12.0608 21.199C12.9724 22.0685 14.0507 22.6267 15.2908 22.8524C17.2665 23.2159 19.054 22.755 20.6036 21.4912C21.908 20.4293 22.6816 19.0395 22.9077 17.3647C23.1577 15.507 22.6745 13.8393 21.4938 12.3949C20.4346 11.0978 19.0517 10.3329 17.3855 10.0906C16.4548 9.95514 15.5431 10.0359 14.6481 10.3067C14.5029 10.3495 14.422 10.3234 14.322 10.2212C13.8698 9.75797 13.4104 9.30422 12.9296 8.82434C13.2438 8.70081 13.5294 8.5749 13.8246 8.47037C14.4934 8.23519 15.1837 8.08077 15.893 8.02851C15.9311 8.02613 15.9668 8.0095 16.0025 8C16.3334 8 16.6666 8 16.9975 8C17.1165 8.01425 17.2379 8.02851 17.3569 8.04276C19.0088 8.22568 20.4965 8.81722 21.7842 9.86724C23.767 11.4827 24.8548 13.578 24.9881 16.1365C25.0738 17.8018 24.6834 19.3674 23.817 20.7951C22.4674 23.0187 20.5108 24.3895 17.9472 24.8717C17.633 24.9311 17.3141 24.9596 16.9975 25.0024H16.0025C15.9597 24.9929 15.9168 24.9762 15.874 24.9739C14.9838 24.9145 14.1197 24.7244 13.3057 24.3681C10.4779 23.128 8.74265 20.9994 8.1333 17.9634C8.07141 17.6474 8.04285 17.3196 8 16.9989C8 16.6663 8 16.3337 8 16.0035V16.0011Z" fill="#F0FAF4"/>
<path d="M10.6564 8C10.7992 8.11878 10.9516 8.22568 11.0801 8.35634C11.9822 9.26146 12.8772 10.1737 13.7793 11.0788C13.9388 11.238 14.0174 11.4114 14.0126 11.6371C14.0031 12.1241 14.0126 12.6111 14.0055 13.0981C14.0055 13.2406 14.0412 13.3428 14.1459 13.4449C15.0171 14.3097 15.8859 15.1792 16.7523 16.0486C16.8118 16.108 16.8713 16.1674 16.9165 16.2363C17.0498 16.4359 17.0141 16.6901 16.8404 16.8563C16.6714 17.0179 16.4262 17.044 16.231 16.911C16.1668 16.8682 16.112 16.8136 16.0573 16.7589C15.1766 15.88 14.2959 15.001 13.4175 14.1172C13.3366 14.0365 13.2557 14.0032 13.1414 14.0056C12.6273 14.0127 12.1131 14.0056 11.599 14.0103C11.4109 14.0103 11.2562 13.9533 11.1229 13.8203C10.1494 12.8463 9.17586 11.8723 8.20232 10.8959C8.12377 10.8175 8.06665 10.7153 8 10.6227C8 10.5443 8 10.4683 8 10.3899C8.08093 10.1832 8.20708 10.0264 8.44273 9.9979C8.51414 9.9884 8.58555 9.99078 8.65696 9.99078C9.10683 9.99078 9.55909 9.99078 10.0256 9.99078C10.0256 9.52515 10.0351 9.07378 10.0232 8.62241C10.0137 8.31596 10.1304 8.1069 10.4231 8C10.5017 8 10.5778 8 10.6564 8Z" fill="#F0FAF4"/>
<path d="M15.0052 12.2974C15.6836 12.0479 16.3739 11.9577 17.0808 12.0574C18.3614 12.2404 19.3921 12.8533 20.1443 13.9057C20.8417 14.8797 21.113 15.9725 20.9226 17.1579C20.6632 18.7781 19.7729 19.9588 18.2757 20.6002C16.6 21.3176 15.0005 21.073 13.6032 19.9018C12.4083 18.8993 11.899 17.576 12.0561 16.0176C12.087 15.7064 12.187 15.4047 12.2655 15.0982C12.275 15.0602 12.3465 15.0365 12.3893 15.0056C12.3941 15.0032 12.4012 15.0056 12.406 15.0056C12.7217 14.9961 12.9931 15.1054 13.22 15.3334C13.4676 15.5805 13.7151 15.8228 13.9579 16.0746C14.0008 16.1198 14.0365 16.1982 14.0293 16.2576C13.8841 17.5261 14.8029 18.7448 16.0645 18.9515C17.6593 19.2128 19.0541 17.9823 18.9875 16.3692C18.9303 14.9652 17.6616 13.8819 16.2525 14.0292C16.2025 14.034 16.1311 14.0102 16.0954 13.9746C15.7503 13.6372 15.4099 13.2999 15.0743 12.9531C15.0314 12.9103 15.0124 12.8271 15.01 12.763C15.0005 12.6086 15.0076 12.4542 15.0076 12.295L15.0052 12.2974Z" fill="#F0FAF4"/>
</g>
<defs>
<clipPath id="clip0_1315_69">
<rect width="17" height="17" fill="white" transform="translate(8 8)"/>
</clipPath>
</defs>
</svg>
