<svg width="16" height="19" viewBox="0 0 16 19" fill="none" xmlns="http://www.w3.org/2000/svg">
<g clip-path="url(#clip0_1315_161)">
<path d="M5.82577 5.1223C5.33852 5.1223 4.89262 5.11781 4.44559 5.12342C4.10139 5.12791 3.83988 4.99541 3.69348 4.67764C3.55714 4.38121 3.63425 4.08814 3.91029 3.81191C5.0826 2.63291 6.25603 1.45277 7.42946 0.274889C7.79378 -0.0911654 8.19722 -0.0911654 8.56378 0.276011C9.73832 1.4539 10.9106 2.63291 12.0829 3.81304C12.3612 4.09263 12.4316 4.37559 12.2964 4.67989C12.1522 5.00327 11.8885 5.12903 11.5454 5.12454C11.0995 5.11893 10.6536 5.12342 10.1831 5.12342V18.9987H5.82354V5.1223H5.82577Z" fill="#F0FAF4"/>
<path d="M15.9911 18.9999H11.636V18.7518C11.636 15.7155 11.636 12.6782 11.636 9.64197C11.636 9.05471 11.912 8.77737 12.4987 8.77737C13.4073 8.77737 14.3159 8.77512 15.2256 8.77737C15.6905 8.77849 15.9989 9.08278 15.9989 9.54653C16.0011 12.6591 15.9989 15.7717 15.9989 18.8854C15.9989 18.9157 15.9944 18.9449 15.9911 18.9999Z" fill="#F0FAF4"/>
<path d="M4.35398 18.9988H0V18.7563C0 16.9294 0 15.1036 0 13.2767C0 12.7186 0.283858 12.4312 0.835929 12.4312C1.7445 12.4312 2.65307 12.43 3.56164 12.4312C4.04889 12.4312 4.36181 12.7254 4.36181 13.197C4.36404 15.0991 4.36181 17.0023 4.36181 18.9045C4.36181 18.9269 4.35846 18.9494 4.35398 18.9988Z" fill="#F0FAF4"/>
</g>
<defs>
<clipPath id="clip0_1315_161">
<rect width="16" height="19" fill="white"/>
</clipPath>
</defs>
</svg>
