<svg width="33" height="33" viewBox="0 0 33 33" fill="none" xmlns="http://www.w3.org/2000/svg">
<g clip-path="url(#clip0_1315_119)">
<path d="M16.5 0C7.38504 0 0 7.3901 0 16.5C0 25.6099 7.38504 33 16.5 33C25.615 33 33 25.615 33 16.5C33 7.38504 25.6099 0 16.5 0ZM15.0179 15.0179H17.9821C20.4201 15.0179 22.4283 17.0261 22.4283 19.4692C22.4283 21.9123 20.4201 23.9154 17.9821 23.9154V25.3975C17.9821 26.2169 17.3194 26.8795 16.5 26.8795C15.6806 26.8795 15.0179 26.2169 15.0179 25.3975V23.9154C12.5748 23.9154 10.5717 21.9073 10.5717 19.4692C10.5717 18.6498 11.2293 17.9821 12.0487 17.9821C12.8682 17.9821 13.5308 18.6498 13.5308 19.4692C13.5308 20.2886 14.1681 20.9513 15.0179 20.9513H17.9821C18.8268 20.9513 19.4641 20.3139 19.4641 19.4692C19.4641 18.6245 18.8268 17.9821 17.9821 17.9821H15.0179C12.5748 17.9821 10.5667 15.9739 10.5667 13.5359C10.5667 11.0978 12.5748 9.08461 15.0179 9.08461V7.60254C15.0179 6.78311 15.6806 6.12048 16.5 6.12048C17.3194 6.12048 17.9821 6.78311 17.9821 7.60254V9.08461C20.4201 9.08461 22.4283 11.0978 22.4283 13.5359C22.4283 14.3553 21.7656 15.0179 20.9462 15.0179C20.1268 15.0179 19.4641 14.3553 19.4641 13.5359C19.4641 12.7164 18.8268 12.0538 17.9821 12.0538H15.0179C14.1681 12.0538 13.5308 12.6911 13.5308 13.5359C13.5308 14.3806 14.1681 15.0179 15.0179 15.0179Z" fill="#333333"/>
</g>
<defs>
<clipPath id="clip0_1315_119">
<rect width="33" height="33" rx="16.5" fill="white"/>
</clipPath>
</defs>
</svg>
