<svg width="20" height="21" viewBox="0 0 20 21" fill="none" xmlns="http://www.w3.org/2000/svg">
<g clip-path="url(#clip0_1315_140)">
<path d="M12.3746 0C12.6901 0.067019 13.0117 0.111 13.3212 0.201057C15.5765 0.86287 17.057 3.00329 16.968 5.45368C16.8831 7.77212 15.2083 9.79735 12.9733 10.2832C10.1315 10.9032 7.32402 8.82557 6.98422 5.84951C6.65655 3.01376 8.51334 0.481699 11.2338 0.0502643C11.3248 0.0376982 11.4138 0.0167548 11.5028 0C11.7941 0 12.0833 0 12.3746 0ZM10.1214 6.68934C10.1214 7.35115 10.5603 7.97527 11.1853 8.19517C11.2945 8.23287 11.3572 8.26638 11.3653 8.4088C11.3875 8.76484 11.6383 9.00359 11.9539 9.00359C12.2775 9.00359 12.5182 8.75855 12.5425 8.38785C12.5485 8.27895 12.5849 8.23287 12.682 8.20564C12.9895 8.11559 13.2423 7.93338 13.4426 7.67787C14.0231 6.93019 13.8734 5.89558 13.0967 5.2966C12.5627 4.88401 12.0247 4.47771 11.4907 4.06512C11.3471 3.95412 11.2702 3.80752 11.3269 3.61903C11.3855 3.42425 11.5271 3.33839 11.7172 3.3321C11.8487 3.32791 11.9822 3.33001 12.1137 3.3321C12.4474 3.3342 12.5667 3.4431 12.6072 3.78239C12.6497 4.13005 12.9288 4.37509 13.2464 4.34367C13.568 4.31226 13.8026 4.02533 13.7904 3.67767C13.7682 3.01586 13.3637 2.42944 12.7609 2.21372C12.6092 2.15927 12.5445 2.09435 12.5364 1.92051C12.5202 1.62731 12.2755 1.4074 11.9984 1.39065C11.7031 1.37389 11.426 1.56238 11.3916 1.85978C11.3653 2.08387 11.2702 2.16346 11.0801 2.24304C9.94538 2.72893 9.78559 4.26409 10.7807 5.04947C11.3167 5.47252 11.8629 5.87883 12.4029 6.29351C12.5587 6.41289 12.6497 6.56368 12.5829 6.77102C12.5182 6.97626 12.3665 7.05166 12.1703 7.05166C12.0388 7.05166 11.9053 7.05166 11.7739 7.05166C11.4725 7.05166 11.3451 6.93228 11.3087 6.62023C11.2682 6.26628 11.0032 6.03171 10.6756 6.05475C10.358 6.07779 10.1234 6.34796 10.1234 6.68724L10.1214 6.68934Z" fill="#F0FAF4"/>
<path d="M10.1941 17.8041C9.41538 17.8041 8.63665 17.7999 7.85793 17.8083C7.72848 17.8083 7.65971 17.7685 7.59499 17.6512C6.8466 16.3004 6.0962 14.9516 5.33973 13.607C5.275 13.4918 5.26893 13.406 5.33568 13.2908C6.02743 12.1054 7.04685 11.408 8.35753 11.2027C9.59135 11.0101 10.6593 11.4101 11.5675 12.2939C11.6261 12.3504 11.7273 12.3881 11.8082 12.3881C12.5201 12.3965 13.2341 12.3881 13.9461 12.3944C14.5145 12.3986 14.8968 12.9012 14.7491 13.4395C14.652 13.7934 14.3446 14.0238 13.9562 14.0259C12.9651 14.028 11.9761 14.0259 10.985 14.0259C10.5319 14.0259 10.2366 14.449 10.4004 14.8616C10.4995 15.1129 10.6917 15.2511 10.9546 15.2532C11.9376 15.2574 12.9227 15.2637 13.9057 15.249C14.3446 15.2427 14.741 15.0773 15.097 14.8071C16.2762 13.9212 17.4595 13.0353 18.6427 12.1557C19.0513 11.852 19.559 11.9253 19.8361 12.319C20.1112 12.7086 20.0363 13.2342 19.6379 13.5337C18.1917 14.6228 16.7455 15.7119 15.2892 16.7863C14.3244 17.4983 13.2443 17.8355 12.0549 17.8062C11.434 17.7915 10.813 17.8041 10.1941 17.8041Z" fill="#F0FAF4"/>
<path d="M3.28689 13.0602C3.59231 13.0707 3.75008 13.2047 3.86739 13.4162C4.34272 14.2749 4.82208 15.1315 5.30145 15.9881C5.74239 16.7798 6.18535 17.5714 6.62831 18.3652C6.85687 18.7757 6.78406 19.071 6.39166 19.3076C5.52395 19.8291 4.65623 20.3464 3.78851 20.8637C3.38802 21.1025 3.10687 21.025 2.87831 20.6145C1.96205 18.9704 1.04579 17.3264 0.129528 15.6823C-0.0949865 15.2802 -0.0201483 14.9849 0.362133 14.7566C1.23997 14.2288 2.11982 13.7032 2.99967 13.1796C3.10485 13.1167 3.22823 13.0832 3.28891 13.0581L3.28689 13.0602Z" fill="#F0FAF4"/>
</g>
<defs>
<clipPath id="clip0_1315_140">
<rect width="20" height="21" fill="white"/>
</clipPath>
</defs>
</svg>
