<svg width="33" height="33" viewBox="0 0 33 33" fill="none" xmlns="http://www.w3.org/2000/svg">
<path d="M16 0C6.88504 0 -0.5 7.3901 -0.5 16.5C-0.5 25.6099 6.88504 33 16 33C25.115 33 32.5 25.615 32.5 16.5C32.5 7.38504 25.1099 0 16 0ZM14.5179 15.0179H17.4821C19.9201 15.0179 21.9283 17.0261 21.9283 19.4692C21.9283 21.9123 19.9201 23.9154 17.4821 23.9154V25.3975C17.4821 26.2169 16.8194 26.8795 16 26.8795C15.1806 26.8795 14.5179 26.2169 14.5179 25.3975V23.9154C12.0748 23.9154 10.0717 21.9073 10.0717 19.4692C10.0717 18.6498 10.7293 17.9821 11.5487 17.9821C12.3682 17.9821 13.0308 18.6498 13.0308 19.4692C13.0308 20.2886 13.6681 20.9513 14.5179 20.9513H17.4821C18.3268 20.9513 18.9641 20.3139 18.9641 19.4692C18.9641 18.6245 18.3268 17.9821 17.4821 17.9821H14.5179C12.0748 17.9821 10.0667 15.9739 10.0667 13.5359C10.0667 11.0978 12.0748 9.08461 14.5179 9.08461V7.60254C14.5179 6.78311 15.1806 6.12048 16 6.12048C16.8194 6.12048 17.4821 6.78311 17.4821 7.60254V9.08461C19.9201 9.08461 21.9283 11.0978 21.9283 13.5359C21.9283 14.3553 21.2656 15.0179 20.4462 15.0179C19.6268 15.0179 18.9641 14.3553 18.9641 13.5359C18.9641 12.7164 18.3268 12.0538 17.4821 12.0538H14.5179C13.6681 12.0538 13.0308 12.6911 13.0308 13.5359C13.0308 14.3806 13.6681 15.0179 14.5179 15.0179Z" fill="#333333"/>
</svg>
