<svg width="33" height="33" viewBox="0 0 33 33" fill="none" xmlns="http://www.w3.org/2000/svg">
<path d="M16.5 0C7.39895 0 0 7.39895 0 16.5C0 25.6011 7.39895 33 16.5 33C25.6011 33 33 25.6011 33 16.5C33 7.39895 25.6011 0 16.5 0ZM25.74 18.0632H23.2389L20.8074 22.9263C20.4947 23.4474 19.9737 23.7947 19.3832 23.7947C18.7926 23.7947 18.2368 23.4474 17.9937 22.9263L13.6168 14.2768L12.1579 17.1947C11.88 17.7158 11.3589 18.0632 10.7684 18.0632H7.29474C6.42632 18.0632 5.73158 17.3684 5.73158 16.5C5.73158 15.6316 6.42632 14.9368 7.29474 14.9368H9.79579L12.2274 10.0737C12.7484 9.03158 14.4853 9.03158 15.0063 10.0737L19.3484 18.7232L20.8421 15.7705C21.12 15.2495 21.6411 14.9021 22.2316 14.9021H25.7053C26.5737 14.9021 27.2684 15.5968 27.2684 16.4653C27.2684 17.3337 26.6084 18.0632 25.74 18.0632Z" fill="#333333"/>
</svg>
