<svg width="34" height="33" viewBox="0 0 34 33" fill="none" xmlns="http://www.w3.org/2000/svg">
<g clip-path="url(#clip0_1563_10)">
<path d="M17.5 0C8.38 0 1 7.39 1 16.5C1 25.61 8.38 33 17.5 33C26.62 33 34 25.62 34 16.5C34 7.38 26.61 0 17.5 0ZM8.37 22.89C7.36 22.89 6.54 22.07 6.54 21.06V19.01C6.54 17.27 7.69 15.8 9.27 15.3C8.47 14.89 7.91 14.05 7.91 13.08C7.91 11.69 9.04 10.57 10.42 10.57C11.8 10.57 12.93 11.69 12.93 13.08C12.93 14.05 12.38 14.89 11.58 15.3C12.05 15.45 12.49 15.69 12.86 16C12.04 17.02 11.56 18.32 11.56 19.7V22.43C11.56 22.59 11.58 22.74 11.61 22.89H8.37ZM22.52 22.43C22.52 23.44 21.7 24.26 20.69 24.26H14.3C13.29 24.26 12.48 23.44 12.48 22.43V19.7C12.48 17.37 14.06 15.43 16.19 14.85C15.08 14.35 14.3 13.24 14.3 11.94C14.3 10.17 15.73 8.74 17.5 8.74C19.27 8.74 20.69 10.17 20.69 11.94C20.69 13.24 19.91 14.35 18.8 14.85C20.94 15.43 22.52 17.37 22.52 19.7V22.43ZM28.45 21.06C28.45 22.07 27.63 22.89 26.62 22.89H23.39C23.42 22.74 23.43 22.59 23.43 22.43V19.7C23.43 18.32 22.95 17.02 22.13 16C22.51 15.69 22.94 15.45 23.41 15.3C22.61 14.89 22.06 14.05 22.06 13.08C22.06 11.69 23.18 10.57 24.57 10.57C25.96 10.57 27.08 11.69 27.08 13.08C27.08 14.05 26.53 14.89 25.72 15.3C27.3 15.8 28.45 17.27 28.45 19.01V21.06Z" fill="#333333"/>
</g>
<defs>
<clipPath id="clip0_1563_10">
<rect width="33" height="33" fill="white" transform="translate(1)"/>
</clipPath>
</defs>
</svg>
