<svg width="33" height="33" viewBox="0 0 33 33" fill="none" xmlns="http://www.w3.org/2000/svg">
<rect width="33" height="33" rx="16.5" fill="#333333"/>
<g clip-path="url(#clip0_1390_1242)">
<path d="M25.3921 24H8.60493C8.44387 24 8.29057 23.9346 8.17608 23.8195C8.06159 23.7024 7.99756 23.5457 7.99756 23.381V15.5496C8.00338 14.9048 8.41865 14.3413 9.02408 14.1568L12.2337 13.2143V9.8155C12.2317 9.24606 12.4917 8.71034 12.9361 8.36709C13.3805 8.02384 13.9568 7.91273 14.4904 8.06947L20.4846 9.83931C21.2395 10.0655 21.7595 10.7719 21.7634 11.5774V15.1429L24.973 16.0853C25.5765 16.2679 25.9937 16.8334 25.9995 17.4782V23.377C25.9995 23.5397 25.9355 23.6984 25.821 23.8155C25.7065 23.9326 25.5532 23.9961 25.3921 23.9961V24ZM21.7634 22.7599H24.7848V17.4822C24.7809 17.3889 24.7207 17.3076 24.6334 17.2798L21.7634 16.4365V22.7599ZM19.2932 22.7599H20.5506V11.5774C20.5487 11.3234 20.3837 11.1012 20.145 11.0298L14.1547 9.26193C13.9879 9.21233 13.8074 9.24606 13.6696 9.3532C13.528 9.46233 13.4445 9.63296 13.4465 9.8155V22.7599H14.7039V18.4703C14.7039 18.3056 14.7679 18.1488 14.8824 18.0318C14.9969 17.9147 15.1502 17.8512 15.3113 17.8512H18.6877C18.8488 17.8512 19.0021 17.9167 19.1166 18.0318C19.2311 18.1488 19.2951 18.3056 19.2951 18.4703V22.7599H19.2932ZM15.9167 22.7599H18.0804V19.0893H15.9167V22.7599ZM9.21037 22.7599H12.2317V14.504L9.35978 15.3472C9.27246 15.375 9.21231 15.4564 9.20843 15.5496V22.7599H9.21037ZM19.0098 15.7976H18.7052C18.3734 15.7937 18.1075 15.5179 18.1075 15.1786C18.1075 14.8393 18.3734 14.5635 18.7052 14.5596H19.0098C19.3417 14.5635 19.6075 14.8413 19.6075 15.1786C19.6075 15.5159 19.3417 15.7937 19.0098 15.7976ZM17.1509 15.7976H16.8443C16.5124 15.7937 16.2466 15.5179 16.2466 15.1786C16.2466 14.8393 16.5124 14.5635 16.8443 14.5596H17.1509C17.4827 14.5635 17.7485 14.8413 17.7485 15.1786C17.7485 15.5159 17.4827 15.7937 17.1509 15.7976ZM15.2919 15.7976H14.9853C14.6534 15.7937 14.3876 15.5179 14.3876 15.1786C14.3876 14.8393 14.6534 14.5635 14.9853 14.5596H15.2899C15.6217 14.5635 15.8876 14.8413 15.8876 15.1786C15.8876 15.5159 15.6217 15.7937 15.2899 15.7976H15.2919ZM19.0098 13.6409H18.7052C18.3734 13.6369 18.1075 13.3592 18.1075 13.0219C18.1075 12.6846 18.3734 12.4068 18.7052 12.4028H19.0098C19.3417 12.4068 19.6075 12.6846 19.6075 13.0219C19.6075 13.3592 19.3417 13.6369 19.0098 13.6409ZM17.1509 13.6409H16.8443C16.5124 13.6369 16.2466 13.3592 16.2466 13.0219C16.2466 12.6846 16.5124 12.4068 16.8443 12.4028H17.1509C17.4827 12.4068 17.7485 12.6846 17.7485 13.0219C17.7485 13.3592 17.4827 13.6369 17.1509 13.6409ZM15.2919 13.6409H14.9853C14.6534 13.6369 14.3876 13.3592 14.3876 13.0219C14.3876 12.6846 14.6534 12.4068 14.9853 12.4028H15.2899C15.6217 12.4068 15.8876 12.6846 15.8876 13.0219C15.8876 13.3592 15.6217 13.6369 15.2899 13.6409H15.2919Z" fill="white"/>
</g>
<defs>
<clipPath id="clip0_1390_1242">
<rect width="18" height="16" fill="white" transform="translate(8 8)"/>
</clipPath>
</defs>
</svg>
