<svg width="34" height="33" viewBox="0 0 34 33" fill="none" xmlns="http://www.w3.org/2000/svg">
<g clip-path="url(#clip0_1563_23)">
<path d="M17.5 0C8.38 0 1 7.39 1 16.5C1 25.61 8.38 33 17.5 33C26.62 33 34 25.61 34 16.5C34 7.39 26.61 0 17.5 0ZM26.06 22.48C26.06 23.91 24.91 25.06 23.48 25.06H15.24C13.81 25.06 12.66 23.91 12.66 22.48V21.34H11.52C10.09 21.34 8.94 20.18 8.93 18.76V10.52C8.94 9.09 10.09 7.94 11.52 7.94H19.76C21.18 7.94 22.34 9.09 22.34 10.52V11.66H23.48C24.91 11.66 26.06 12.81 26.06 14.24V22.48ZM23.48 13.15H22.34V18.76C22.34 20.18 21.18 21.34 19.76 21.34H14.15V22.48C14.15 23.09 14.64 23.57 15.24 23.57H23.48C24.09 23.57 24.57 23.09 24.57 22.48V14.24C24.57 13.64 24.09 13.15 23.48 13.15ZM18.99 15.38C19.4 15.38 19.73 15.05 19.73 14.64C19.73 14.23 19.4 13.89 18.99 13.89C18.58 13.89 18.24 14.23 18.24 14.64C18.24 15.05 18.58 15.38 18.99 15.38ZM12.66 15.38H16.01C16.42 15.38 16.75 15.05 16.75 14.64C16.75 14.23 16.42 13.89 16.01 13.89H12.66C12.25 13.89 11.91 14.23 11.91 14.64C11.91 15.05 12.25 15.38 12.66 15.38ZM15.64 17.62C15.64 17.21 15.3 16.87 14.89 16.87H12.66C12.25 16.87 11.91 17.21 11.91 17.62C11.91 18.03 12.25 18.36 12.66 18.36H14.89C15.3 18.36 15.64 18.03 15.64 17.62ZM12.66 12.4H13.78C14.19 12.4 14.52 12.07 14.52 11.66C14.52 11.25 14.19 10.91 13.78 10.91H12.66C12.25 10.91 11.91 11.25 11.91 11.66C11.91 12.07 12.25 12.4 12.66 12.4Z" fill="#333333"/>
</g>
<defs>
<clipPath id="clip0_1563_23">
<rect width="33" height="33" fill="white" transform="translate(1)"/>
</clipPath>
</defs>
</svg>
