<svg width="34" height="33" viewBox="0 0 34 33" fill="none" xmlns="http://www.w3.org/2000/svg">
<path d="M0 17.8457C0 17.4654 0 17.0851 0 16.7031C0.0136704 16.7333 0.0290496 16.7634 0.04272 16.7919C0.059808 16.7819 0.076896 16.7701 0.093984 16.7601C0.107654 16.6143 0.109363 16.4669 0.138413 16.3245C0.266573 15.698 0.507514 15.1116 0.857818 14.5755C1.36021 13.8049 1.89164 13.0527 2.41795 12.2971C3.07926 11.3489 3.47057 10.3102 3.55943 9.16262C3.60557 8.58129 3.65342 7.99996 3.7474 7.42534C3.90461 6.46539 4.34206 5.61434 4.96748 4.86883C5.56556 4.15683 6.39775 3.8335 7.30683 3.72963C8.18686 3.63079 9.07373 3.59728 9.95889 3.53697C10.5689 3.49677 11.1585 3.37614 11.6677 3.02936C12.141 2.70603 12.6007 2.36259 13.0569 2.01748C13.6226 1.5886 14.1642 1.12622 14.7469 0.722474C15.2613 0.367311 15.8252 0.0908869 16.4865 0.0925622C16.5207 0.0925622 16.5549 0.0724587 16.601 0.057381C16.5344 0.0339268 16.4831 0.0154986 16.4301 -0.00292969C16.7445 -0.00292969 17.059 -0.00292969 17.3751 -0.00292969C17.4332 0.0238751 17.4913 0.0674328 17.5511 0.0724587C18.1816 0.131094 18.7387 0.379038 19.2531 0.720799C19.5692 0.931886 19.8751 1.15973 20.1758 1.39092C20.8081 1.87675 21.4284 2.37767 22.064 2.85848C22.4981 3.18684 22.9936 3.40127 23.537 3.48169C23.8907 3.53362 24.2513 3.54367 24.6084 3.57215C25.3654 3.63414 26.1276 3.66262 26.8794 3.76481C27.7663 3.88543 28.5301 4.27075 29.1009 4.96768C29.8955 5.93935 30.2748 7.06347 30.3739 8.29314C30.4235 8.90462 30.4713 9.51946 30.5875 10.1192C30.7704 11.0574 31.2591 11.8682 31.8179 12.6405C32.2228 13.2018 32.6347 13.7613 33.0089 14.3426C33.407 14.9625 33.7249 15.6242 33.8616 16.353C33.8923 16.5138 33.8906 16.6797 33.9043 16.8439C33.9146 16.8439 33.9231 16.8439 33.9334 16.8439C33.9539 16.7953 33.9761 16.745 33.9966 16.6964V17.3967C33.9727 17.4788 33.9351 17.5592 33.9248 17.643C33.812 18.5979 33.3695 19.3953 32.6791 20.0621C32.2724 20.4558 31.8486 20.8327 31.4078 21.1879C30.8746 21.6185 30.6012 22.1763 30.5243 22.823C30.4491 23.4613 30.4115 24.1063 30.3876 24.7496C30.338 26.1334 29.8186 27.3312 28.836 28.3062C27.7646 29.3717 26.4744 29.9732 24.8904 29.8324C24.4461 29.7922 23.995 29.7755 23.5524 29.8073C22.997 29.8475 22.5237 30.1306 22.0845 30.4372C21.4044 30.9113 20.738 31.4055 20.0869 31.9199C18.8771 32.8764 17.5049 33.1545 15.9944 32.9083C15.1468 32.7692 14.453 32.3337 13.7934 31.8311C13.2586 31.4223 12.7237 31.0135 12.1855 30.6098C11.3191 29.9614 10.3605 29.68 9.25486 29.804C8.63115 29.8743 7.99377 29.8827 7.36835 29.6783C4.9521 28.8892 3.63462 26.6745 3.60215 24.8333C3.59361 24.3358 3.57652 23.8382 3.54234 23.3423C3.47399 22.3924 3.14932 21.5849 2.33593 20.9701C1.79937 20.563 1.30723 20.0789 0.876615 19.5629C0.410112 19.005 0.059808 18.3634 0.140122 17.591C0.14183 17.5709 0.136704 17.5492 0.131578 17.4955C0.0837312 17.6379 0.04272 17.7418 0 17.8457ZM26.4437 16.807C26.5377 11.8364 22.3819 7.46219 16.9598 7.46052C11.4626 7.45884 7.38373 11.8665 7.43157 16.8388C7.48113 22.0138 11.8181 26.2021 17.1752 26.0848C22.469 25.9692 26.5001 21.6754 26.4454 16.8087L26.4437 16.807Z" fill="#333333"/>
<path d="M26.4439 16.8067C26.4986 21.6751 22.4675 25.9672 17.1737 26.0828C11.8166 26.2 7.47966 22.0118 7.4301 16.8368C7.38226 11.8645 11.4612 7.45515 16.9584 7.4585C22.3804 7.46017 26.5379 11.836 26.4422 16.805L26.4439 16.8067ZM16.2543 16.6793C15.9912 16.4364 15.7417 16.2052 15.4905 15.974C14.983 15.5066 14.4755 15.0375 13.9646 14.5735C13.7766 14.4026 13.6108 14.3892 13.4485 14.5517C12.8145 15.1833 12.1874 15.8199 11.5654 16.4649C11.3996 16.6358 11.4184 16.7949 11.5791 16.9742C11.6252 17.0244 11.6731 17.073 11.7226 17.1216C13.0179 18.3848 14.3132 19.648 15.6101 20.9111C15.7127 21.0116 15.8135 21.1122 15.9263 21.201C16.1108 21.3484 16.2492 21.345 16.4338 21.1976C16.5397 21.1122 16.6422 21.02 16.7414 20.9245C18.6586 19.08 20.5776 17.2339 22.4932 15.386C22.582 15.3006 22.6641 15.2051 22.7392 15.1079C22.8913 14.9136 22.8896 14.7092 22.7512 14.5098C22.6811 14.4093 22.5974 14.3155 22.5103 14.2267C22.0472 13.7593 21.5807 13.2919 21.1142 12.8278C20.675 12.3889 20.5315 12.3922 20.0872 12.8379C18.8158 14.1145 17.5428 15.3894 16.2543 16.6827V16.6793Z" fill="white"/>
<path d="M16.254 16.6795C17.5425 15.3861 18.8155 14.1112 20.0869 12.8347C20.5312 12.389 20.6747 12.3874 21.1139 12.8246C21.5804 13.2903 22.0469 13.7561 22.5099 14.2235C22.5971 14.3106 22.6791 14.4061 22.7509 14.5066C22.891 14.7043 22.891 14.9103 22.7389 15.1047C22.6637 15.2019 22.5817 15.2957 22.4929 15.3828C20.5773 17.2306 18.6583 19.0751 16.741 20.9213C16.6419 21.0168 16.5411 21.1089 16.4335 21.1944C16.2489 21.3435 16.1105 21.3452 15.9259 21.1977C15.8149 21.1089 15.7123 21.0068 15.6098 20.9079C14.3128 19.6447 13.0176 18.3816 11.7223 17.1184C11.6727 17.0715 11.6249 17.0229 11.5787 16.971C11.4181 16.7934 11.3993 16.6342 11.5651 16.4617C12.1871 15.8184 12.8142 15.1817 13.4482 14.5485C13.6105 14.386 13.7763 14.3994 13.9642 14.5703C14.4752 15.0343 14.9827 15.5034 15.4902 15.9708C15.7414 16.202 15.9909 16.4332 16.254 16.6761V16.6795Z" fill="#333333"/>
</svg>
