<svg width="26" height="28" viewBox="0 0 26 28" fill="none" xmlns="http://www.w3.org/2000/svg">
<g clip-path="url(#clip0_540_945)">
<path d="M8.26378 1.1506L7.43459 1.82949C7.32216 1.07988 6.67568 0.5 5.88865 0.5H1.57405C0.702703 0.5 0 1.20718 0 2.08408V6.412C0 7.28889 0.702703 7.99607 1.57405 7.99607H5.87459C6.74594 7.99607 7.44865 7.28889 7.44865 6.412V5.64825C7.44865 5.37952 7.22378 5.15322 6.95676 5.15322C6.68973 5.15322 6.46486 5.37952 6.46486 5.64825V6.412C6.46486 6.7373 6.21189 6.99188 5.88865 6.99188H1.57405C1.25081 6.99188 0.997838 6.7373 0.997838 6.412V2.08408C0.997838 1.75877 1.25081 1.50419 1.57405 1.50419H5.87459C6.19784 1.50419 6.45081 1.75877 6.45081 2.08408V2.63567L3.94919 4.68648L2.61405 3.34285C2.4173 3.14484 2.10811 3.14484 1.91135 3.34285C1.71459 3.54086 1.71459 3.85202 1.91135 4.05003L3.56973 5.71896C3.66811 5.81797 3.79459 5.8604 3.92108 5.8604C4.03351 5.8604 4.14595 5.83211 4.23027 5.74725L8.88216 1.94264C9.09297 1.77292 9.12108 1.44762 8.95243 1.23546C8.78378 1.02331 8.46054 0.995024 8.24973 1.16475L8.26378 1.1506Z" fill="#27AE60"/>
<path d="M8.26378 10.9094L7.43459 11.5883C7.32216 10.8387 6.67568 10.2588 5.88865 10.2588H1.57405C0.702703 10.2588 0 10.966 0 11.8429V16.1708C0 17.0477 0.702703 17.7549 1.57405 17.7549H5.87459C6.74594 17.7549 7.44865 17.0477 7.44865 16.1708V15.407C7.44865 15.1383 7.22378 14.912 6.95676 14.912C6.68973 14.912 6.46486 15.1383 6.46486 15.407V16.1708C6.46486 16.4961 6.21189 16.7507 5.88865 16.7507H1.57405C1.25081 16.7507 0.997838 16.4961 0.997838 16.1708V11.8429C0.997838 11.5176 1.25081 11.263 1.57405 11.263H5.87459C6.19784 11.263 6.45081 11.5176 6.45081 11.8429V12.3945L3.94919 14.4453L2.61405 13.1016C2.4173 12.9036 2.10811 12.9036 1.91135 13.1016C1.71459 13.2996 1.71459 13.6108 1.91135 13.8088L3.56973 15.4778C3.66811 15.5768 3.79459 15.6192 3.92108 15.6192C4.03351 15.6192 4.14595 15.5909 4.23027 15.506L8.88216 11.7014C9.09297 11.5317 9.12108 11.2064 8.95243 10.9943C8.78378 10.7821 8.46054 10.7538 8.24973 10.9235L8.26378 10.9094Z" fill="#27AE60"/>
<path d="M8.26378 20.6545L7.43459 21.3334C7.32216 20.5838 6.67568 20.0039 5.88865 20.0039H1.57405C0.702703 20.0039 0 20.7111 0 21.588V25.9159C0 26.7928 0.702703 27.5 1.57405 27.5H5.87459C6.74594 27.5 7.44865 26.7928 7.44865 25.9159V25.1522C7.44865 24.8834 7.22378 24.6571 6.95676 24.6571C6.68973 24.6571 6.46486 24.8834 6.46486 25.1522V25.9159C6.46486 26.2412 6.21189 26.4958 5.88865 26.4958H1.57405C1.25081 26.4958 0.997838 26.2412 0.997838 25.9159V21.588C0.997838 21.2627 1.25081 21.0081 1.57405 21.0081H5.87459C6.19784 21.0081 6.45081 21.2627 6.45081 21.588V22.1396L3.94919 24.1904L2.61405 22.8468C2.4173 22.6487 2.10811 22.6487 1.91135 22.8468C1.71459 23.0448 1.71459 23.3559 1.91135 23.5539L3.56973 25.2229C3.66811 25.3219 3.79459 25.3643 3.92108 25.3643C4.03351 25.3643 4.14595 25.336 4.23027 25.2512L8.88216 21.4465C9.09297 21.2768 9.12108 20.9515 8.95243 20.7394C8.78378 20.5272 8.46054 20.4989 8.24973 20.6687L8.26378 20.6545Z" fill="#27AE60"/>
<path d="M24.7347 1.68796C23.4979 0.924212 21.8817 1.32023 21.1228 2.56486L9.86551 21.1777C9.86551 21.1777 9.82334 21.2626 9.80929 21.2909C9.80929 21.2909 9.79524 21.3616 9.79524 21.3899L9.40172 26.1563C9.38767 26.3401 9.48605 26.524 9.64064 26.623C9.72497 26.6796 9.80929 26.6937 9.89361 26.6937C9.97794 26.6937 10.0763 26.6654 10.1606 26.6089L14.152 24.0913L14.1942 24.063C14.1942 24.063 14.2644 24.0206 14.2785 23.9923C14.3066 23.964 14.3347 23.9357 14.3487 23.9074L25.6201 5.30871C26.379 4.06408 25.9855 2.43757 24.7487 1.68796H24.7347ZM10.7087 22.2809L10.765 21.6021L10.9617 21.2768L13.7444 22.9881L13.5477 23.3134L12.9715 23.6812L10.7087 22.2951V22.2809ZM23.6666 6.36947L21.179 4.84197C21.179 4.84197 21.0666 4.74297 21.0244 4.68639L21.4882 3.92264C21.5585 3.92264 21.6287 3.95093 21.699 3.99336L24.1866 5.52086C24.1866 5.52086 24.2569 5.57743 24.285 5.60572L23.779 6.42605C23.779 6.42605 23.6947 6.39776 23.6666 6.36947Z" fill="#27AE60"/>
</g>
<defs>
<clipPath id="clip0_540_945">
<rect width="26" height="27" fill="white" transform="translate(0 0.5)"/>
</clipPath>
</defs>
</svg>
