<svg width="26" height="26" viewBox="0 0 26 26" fill="none" xmlns="http://www.w3.org/2000/svg">
<g clip-path="url(#clip0_540_956)">
<path d="M22.8257 8.92913C22.225 7.48423 23.2803 4.89479 22.1845 3.80706C21.0967 2.71933 18.5073 3.76647 17.0624 3.16578C15.6662 2.58945 14.5947 0 12.9875 0C11.3802 0 10.3087 2.58945 8.91253 3.1739C7.46763 3.77459 4.87819 2.71933 3.79045 3.80706C2.70272 4.89479 3.74987 7.48423 3.14918 8.92913C2.57285 10.3253 -0.0166016 11.3968 -0.0166016 13.0041C-0.0166016 14.6113 2.57285 15.6828 3.1573 17.079C3.75799 18.5239 2.70272 21.1133 3.79857 22.2011C4.8863 23.2888 7.47575 22.2416 8.92065 22.8423C10.3168 23.4187 11.3883 26.0081 12.9875 26.0081C14.5866 26.0081 15.6662 23.4187 17.0624 22.8342C18.5073 22.2335 21.0967 23.2888 22.1845 22.1929C23.2722 21.1052 22.225 18.5158 22.8257 17.0709C23.4021 15.6747 25.9915 14.6032 25.9915 13.0041C25.9915 11.4049 23.4021 10.3253 22.8257 8.92913ZM7.99526 9.31876C7.99526 8.37715 8.76642 7.606 9.70803 7.606C10.6497 7.606 11.4208 8.37715 11.4208 9.31876C11.4208 10.2604 10.6497 11.0315 9.70803 11.0315C8.76642 11.0315 7.99526 10.2604 7.99526 9.31876ZM10.6415 17.9719C10.4061 18.2722 10.0571 18.4346 9.70803 18.4346C9.45639 18.4346 9.20475 18.3534 8.98559 18.1911C8.46607 17.7933 8.37678 17.0465 8.77453 16.5351L15.309 8.0768C15.7068 7.56541 16.4536 7.468 16.965 7.86575C17.4845 8.2635 17.5738 9.0103 17.176 9.5217L10.6415 17.98V17.9719ZM16.7783 18.4346C15.8367 18.4346 15.0655 17.6634 15.0655 16.7218C15.0655 15.7802 15.8367 15.0091 16.7783 15.0091C17.7199 15.0091 18.4911 15.7802 18.4911 16.7218C18.4911 17.6634 17.7199 18.4346 16.7783 18.4346Z" fill="#2F80ED"/>
</g>
<defs>
<clipPath id="clip0_540_956">
<rect width="26" height="26" fill="white"/>
</clipPath>
</defs>
</svg>
