<svg width="14" height="10" viewBox="0 0 14 10" fill="none" xmlns="http://www.w3.org/2000/svg">
<g clip-path="url(#clip0_1408_65)">
<path d="M8.70935 5.08017C8.2948 5.36 7.81117 5.49408 7.33329 5.49408C6.85541 5.49408 6.38905 5.36 5.9745 5.09183L0.683288 1.64648C0.671773 1.71061 0.666016 1.77474 0.666016 1.83886V8.83449C0.666016 9.47576 1.1842 10.0004 1.81753 10.0004H12.1812C12.8145 10.0004 13.3327 9.47576 13.3327 8.83449V2.00793L8.70935 5.08017Z" fill="white"/>
<path d="M6.59609 4.10651C7.04518 4.39799 7.62669 4.39799 8.07578 4.10068L12.8776 0.911839C12.6818 0.760267 12.4458 0.666992 12.1809 0.666992H1.8173C1.67911 0.666992 1.55245 0.696141 1.42578 0.742778L6.59609 4.10651Z" fill="white"/>
</g>
<defs>
<clipPath id="clip0_1408_65">
<rect width="12.6667" height="9.33333" fill="white" transform="translate(0.666016 0.666992)"/>
</clipPath>
</defs>
</svg>
