<svg width="14" height="13" viewBox="0 0 14 13" fill="none" xmlns="http://www.w3.org/2000/svg">
<g clip-path="url(#clip0_1408_60)">
<path d="M13.3326 8.04563C13.3326 7.74695 13.3149 7.44827 13.2795 7.16716C13.0846 5.5859 12.128 4.58443 10.5867 4.40874C9.47062 4.28575 8.53169 4.61957 7.87622 5.56833C7.8585 5.60347 7.82307 5.62104 7.76992 5.69131C7.76992 5.35749 7.76992 5.07638 7.76992 4.79527C7.76992 4.63714 7.71678 4.58443 7.55734 4.58443C6.77785 4.58443 5.99836 4.58443 5.23659 4.58443C5.18344 4.58443 5.1303 4.58443 5.07715 4.58443V12.6664H7.76992C7.76992 11.9812 7.76992 11.3311 7.76992 10.6635C7.76992 9.73231 7.76992 8.80113 7.78764 7.88751C7.78764 7.39556 8.07109 7.00903 8.47855 6.74549C9.25803 6.2184 10.2501 6.56979 10.5158 7.46584C10.6044 7.76452 10.6221 8.08077 10.6399 8.39703C10.6399 9.74988 10.6399 11.0852 10.6399 12.438V12.6664H13.3503C13.3503 12.6664 13.3503 12.5434 13.3503 12.4732C13.3503 10.9973 13.3503 9.52148 13.3503 8.04563H13.3326Z" fill="white"/>
<path d="M3.34165 4.56689C2.57988 4.56689 1.80039 4.56689 1.03862 4.56689C0.967759 4.56689 0.914612 4.56689 0.84375 4.56689V12.6489H3.53652C3.53652 12.6489 3.53652 12.561 3.53652 12.5259C3.53652 9.9256 3.53652 7.32531 3.53652 4.72501C3.53652 4.54932 3.46566 4.54932 3.32394 4.54932L3.34165 4.56689Z" fill="white"/>
<path d="M2.10082 0.666992C1.6225 0.684562 1.10875 0.877827 0.825299 1.44005C0.453271 2.1604 0.789868 3.03888 1.53392 3.33756C2.38427 3.68895 3.39406 3.30242 3.6598 2.51179C3.97868 1.56304 3.28777 0.666992 2.10082 0.666992Z" fill="white"/>
</g>
<defs>
<clipPath id="clip0_1408_60">
<rect width="12.6667" height="12" fill="white" transform="translate(0.666016 0.666992)"/>
</clipPath>
</defs>
</svg>
