<svg width="14" height="14" viewBox="0 0 14 14" fill="none" xmlns="http://www.w3.org/2000/svg">
<g clip-path="url(#clip0_1408_69)">
<path d="M2.63045 0.666504C2.66402 0.673412 2.6976 0.679333 2.73117 0.686241C2.86841 0.71486 2.98689 0.780979 3.09649 0.864861C3.26533 0.995125 3.41837 1.14315 3.56252 1.30006C3.81134 1.56848 4.0256 1.86355 4.22998 2.16553C4.52125 2.59777 4.79673 3.03988 5.01987 3.51159C5.09985 3.68232 5.17192 3.85699 5.24203 4.03166C5.2835 4.1343 5.30621 4.24285 5.31509 4.35436C5.33286 4.57344 5.27955 4.77575 5.17587 4.9672C5.08405 5.13595 4.96853 5.28792 4.85498 5.44089C4.79278 5.52477 4.73057 5.60766 4.67034 5.69352C4.64467 5.73102 4.62196 5.77049 4.60222 5.81194C4.57062 5.87609 4.56075 5.94517 4.58148 6.01425C4.60419 6.08925 4.62591 6.16425 4.65751 6.2353C4.78093 6.52149 4.94187 6.78695 5.11762 7.04254C5.6972 7.88827 6.42291 8.57808 7.30858 9.09717C7.47939 9.19684 7.65711 9.28269 7.83978 9.35769C8.01553 9.42973 8.17252 9.41296 8.3226 9.29651C8.42726 9.21559 8.53389 9.13565 8.64151 9.05966C8.77481 8.96591 8.9081 8.87216 9.04633 8.78631C9.16482 8.71229 9.29613 8.6669 9.43634 8.64716C9.62196 8.62052 9.80068 8.65111 9.97248 8.71821C10.0959 8.76657 10.2164 8.82085 10.3348 8.88006C11.0852 9.25309 11.7971 9.68928 12.4616 10.2015C12.6986 10.384 12.9089 10.5932 13.1014 10.8212C13.1784 10.913 13.2466 11.0107 13.289 11.1242C13.3078 11.1745 13.3186 11.2278 13.3325 11.2791V11.4873C13.3137 11.5515 13.3009 11.6176 13.2762 11.6788C13.1034 12.1071 12.8941 12.5146 12.6216 12.8896C12.4448 13.1334 12.2503 13.3604 12.0074 13.5419C11.6283 13.8242 11.2067 13.9929 10.7298 13.9998C10.4879 14.0038 10.2489 13.9702 10.013 13.9169C9.62591 13.8291 9.25664 13.689 8.89625 13.5271C8.42627 13.316 7.97899 13.0604 7.53468 12.8018C6.7132 12.3232 5.92923 11.7903 5.20056 11.1784C4.60518 10.6801 4.04831 10.1413 3.51118 9.5827C3.07279 9.12677 2.65316 8.65506 2.27105 8.15078C1.63519 7.30998 1.10301 6.40602 0.62611 5.46753C0.402966 5.0274 0.222279 4.5695 0.108732 4.08693C0.0307309 3.75436 -0.0176499 3.41883 0.0060468 3.07442C0.0297435 2.73001 0.140328 2.41816 0.328914 2.13099C0.505652 1.86257 0.732745 1.64447 0.987485 1.45105C1.38638 1.14809 1.82674 0.920124 2.28981 0.73361C2.35202 0.708938 2.41916 0.696109 2.48334 0.679333C2.50605 0.674399 2.52974 0.670451 2.55245 0.666504C2.57812 0.666504 2.60478 0.666504 2.63045 0.666504Z" fill="white"/>
</g>
<defs>
<clipPath id="clip0_1408_69">
<rect width="13.3333" height="13.3333" fill="white" transform="translate(0 0.666504)"/>
</clipPath>
</defs>
</svg>
