<svg width="254" height="29" viewBox="0 0 254 29" fill="none" xmlns="http://www.w3.org/2000/svg">
<g clip-path="url(#clip0_51_384)">
<path d="M30.5115 0V5.17857L30.1687 4.97143C30.1687 4.97143 26.8433 0.414286 19.5754 0.414286C18.9926 0.414286 18.4783 0.655952 18.1012 1.03571C17.7241 1.41548 17.4841 1.93333 17.4841 2.52024V28.9655H13.0617V2.52024C13.0617 1.93333 12.8217 1.41548 12.4446 1.03571C12.0675 0.655952 11.5532 0.414286 10.9704 0.414286C3.66824 0.414286 0.377109 4.93691 0.308544 4.97143L0 5.17857V0H30.5115Z" fill="#082447"/>
<path d="M54.3723 0V5.17857L54.0637 4.97143C54.0637 4.97143 52.761 4.17738 50.6697 3.24524C46.4873 1.38095 41.962 0.44881 37.3681 0.44881V13.4643H46.2816V13.8786H37.3681V28.9655H32.9456V0H54.3723Z" fill="#082447"/>
<path d="M78.233 0V5.17857L77.9244 4.97143C77.9244 4.97143 76.6217 4.17738 74.5305 3.24524C70.348 1.38095 65.8227 0.44881 61.2288 0.44881V13.4643H70.1423V13.8786H61.2288V28.9655H56.8063V0H78.233Z" fill="#082447"/>
<path d="M102.094 0V5.17857L101.785 4.97143C101.785 4.97143 100.482 4.17738 98.3912 3.24524C94.2087 1.38095 89.6834 0.44881 85.0895 0.44881V13.4643H94.003V13.8786H85.0895V28.9655H80.6671V0H102.094Z" fill="#082447"/>
<path d="M147.278 18.9881C147.004 20.7488 146.558 22.3369 145.941 23.6833C143.918 28.0678 140.696 28.8619 139.77 28.9654H135.176L134.045 23.7178C132.022 28.0333 128.834 28.7928 127.908 28.9309H123.315L117.041 -0.0690918H121.635L127.806 28.4821C128.594 28.3785 131.748 27.6535 133.668 23.4416C133.737 23.3035 133.805 23.1654 133.874 22.9928L128.903 -0.034568H133.497L139.667 28.5166C140.113 28.4476 141.416 28.1714 142.821 27.0666C144.638 25.6166 145.667 23.4416 145.77 21.1285C146.25 10.9095 140.97 0.414242 140.902 0.31067L140.73 -4.41745e-05H145.324L145.393 0.138051C145.393 0.138051 148.752 9.52853 147.278 18.9881Z" fill="#082447"/>
<path d="M174.019 29H169.562L164.762 16.9167C162.774 16.0881 160.477 16.1917 158.626 17.2619C158.214 17.5036 157.837 17.7452 157.494 18.0214C154.889 20.0583 153.449 23.269 153.552 26.6179C153.586 27.9298 153.655 28.7238 153.655 28.7583V29H147.895L158.969 2.175L158.111 0H162.568L174.121 29H174.019ZM164.522 16.3643L159.106 2.7619L155.54 11.3583C154.512 13.844 153.86 16.5024 153.655 19.1952C155.232 17.6071 158.009 15.5357 161.711 15.7774C161.78 15.7774 161.814 15.7774 161.883 15.7774C162.705 15.881 163.597 16.0881 164.522 16.3988V16.3643Z" fill="#082447"/>
<path d="M200.279 0V5.17857L199.971 4.97143C199.971 4.97143 196.645 0.44881 189.343 0.44881C188.76 0.44881 188.246 0.690476 187.869 1.07024C187.492 1.45 187.252 1.96786 187.252 2.55476V29H182.829V2.52024C182.829 1.93333 182.589 1.41548 182.212 1.03571C181.835 0.655952 181.321 0.414286 180.738 0.414286C173.47 0.414286 170.179 4.90238 170.11 4.9369L169.802 5.14405V0H200.313H200.279Z" fill="#082447"/>
<path d="M225.511 18.8846L229.419 20.887L229.317 21.0942C226.677 25.962 221.466 28.9656 215.706 28.9656C207.273 28.9656 200.416 22.4751 200.416 14.4656C200.416 6.45605 207.273 -0.0344238 215.706 -0.0344238C221.466 -0.0344238 226.677 2.96915 229.317 7.83701L229.419 8.04415L225.511 10.0465L225.443 9.80486C224.003 4.17748 220.094 0.414386 215.706 0.414386C210.015 0.414386 205.387 6.73224 205.387 14.4656C205.387 22.1989 210.015 28.5168 215.706 28.5168C220.094 28.5168 224.003 24.7537 225.443 19.1263L225.511 18.8501V18.8846Z" fill="#082447"/>
<path d="M254 0V29H249.578V13.9131H236.824V29H232.402V0H236.824V13.4643H249.578V0H254Z" fill="#082447"/>
</g>
<defs>
<clipPath id="clip0_51_384">
<rect width="254" height="29" fill="white"/>
</clipPath>
</defs>
</svg>
