<svg width="34" height="37" viewBox="0 0 34 37" fill="none" xmlns="http://www.w3.org/2000/svg">
<path d="M11.047 16.6742C11.6213 17.1824 12.1956 17.6917 12.771 18.1977C13.7285 19.0398 14.6872 19.8808 15.6447 20.7229C15.9544 20.995 16.2642 21.2671 16.5705 21.5426C16.8237 21.7708 16.9402 21.7652 17.1934 21.5347C18.4268 20.4104 19.6646 19.2905 20.8991 18.1685C21.4259 17.6884 21.9493 17.2049 22.4761 16.7237C22.5485 16.6585 22.6253 16.5978 22.7542 16.491C22.7418 16.618 22.7542 16.6765 22.7305 16.7147C21.8091 18.2033 20.8855 19.6897 19.9619 21.176C19.408 22.0665 18.8496 22.9547 18.3047 23.8508C18.2368 23.9621 18.2108 24.1184 18.2187 24.2511C18.3182 25.8667 18.429 27.4824 18.5353 29.0981C18.5794 29.7794 18.6235 30.4619 18.6585 31.1443C18.7422 32.7611 18.8202 34.379 18.9004 35.9958C18.9208 36.4017 18.9027 36.4231 18.4844 36.4242C17.45 36.4276 16.4156 36.4231 15.3813 36.4287C15.171 36.4298 15.076 36.3747 15.084 36.1408C15.1213 35.1492 15.128 34.1564 15.171 33.1659C15.2501 31.295 15.3451 29.4252 15.4367 27.5555C15.4898 26.4716 15.5734 25.3878 15.5893 24.3039C15.5927 24.0453 15.4118 23.7642 15.2626 23.5259C14.2858 21.9619 13.2955 20.4059 12.3075 18.8498C11.9164 18.2337 11.5139 17.6254 11.1217 17.0104C11.064 16.9193 11.0301 16.8136 10.9849 16.7147C11.0063 16.7023 11.0267 16.6888 11.0482 16.6765L11.047 16.6742Z" fill="#FFFFFF"/>
<path d="M14.3786 16.7508C14.3955 15.3195 15.5023 14.1985 16.8781 14.2188C18.2798 14.239 19.3549 15.3881 19.3425 16.852C19.3301 18.2011 18.1578 19.3457 16.8023 19.3333C15.4548 19.321 14.3628 18.1573 14.3786 16.7508Z" fill="#FFFFFF"/>
<path d="M31.4716 22.4385C30.9233 22.4632 30.3965 22.2226 29.8685 22.0079C29.0523 21.6762 28.2452 21.322 27.438 20.9679C27.3442 20.9274 27.2752 20.833 27.1938 20.7644C27.256 20.698 27.3058 20.6103 27.3815 20.5687C28.4046 19.9998 29.4175 19.4096 30.462 18.8834C31.0883 18.5674 31.7655 18.4494 32.4211 18.8766C33.1593 19.3567 33.4906 20.4316 33.1526 21.2658C32.8315 22.0596 32.3092 22.434 31.4716 22.4396V22.4385Z" fill="#FFFFFF"/>
<path d="M31.089 9.11429C31.0833 9.67196 30.8731 10.1554 30.4311 10.4815C30.0512 10.7614 29.6205 10.9841 29.1898 11.1842C28.3566 11.5687 27.5088 11.9217 26.6643 12.2815C26.5875 12.3141 26.4574 12.3411 26.4122 12.3018C26.3625 12.2602 26.3568 12.1297 26.3783 12.0499C26.5615 11.354 26.7514 10.6591 26.9458 9.96541C27.069 9.52467 27.1753 9.07494 27.3415 8.64995C27.5992 7.99221 27.9531 7.37271 28.7082 7.20181C29.469 7.02979 30.1462 7.24116 30.6481 7.86854C30.9364 8.22832 31.0935 8.64545 31.0901 9.11429H31.089Z" fill="#FFFFFF"/>
<path d="M31.5236 16.4177C30.9708 16.4773 30.496 16.2322 30.0348 15.9871C29.1327 15.5082 28.243 15.0022 27.3522 14.5019C27.2787 14.4603 27.2324 14.3726 27.1736 14.3062C27.2358 14.2545 27.2889 14.1837 27.3601 14.1522C28.3674 13.7171 29.3735 13.2786 30.3886 12.8649C30.6893 12.7423 31.0172 12.6591 31.3405 12.6209C32.1804 12.5219 32.9627 13.0852 33.1798 13.9094C33.3855 14.6919 33.2566 15.3912 32.6711 15.9815C32.3557 16.2997 31.977 16.4537 31.5236 16.4189V16.4177Z" fill="#FFFFFF"/>
<path d="M21.6213 2.51103C21.5094 2.95177 21.4337 3.40487 21.2788 3.83099C20.9442 4.75182 20.5688 5.65915 20.2105 6.57098C20.2003 6.59684 20.1969 6.62832 20.1811 6.64968C20.1065 6.75087 20.0285 6.84981 19.9516 6.94988C19.8668 6.85769 19.7594 6.77786 19.7018 6.67217C19.2032 5.75135 18.6968 4.83502 18.2265 3.89958C17.9077 3.26546 17.6997 2.59761 17.9586 1.87916C18.2016 1.20794 18.9545 0.714355 19.73 0.714355C20.5112 0.714355 21.2392 1.18208 21.4755 1.86005C21.5444 2.05905 21.5478 2.28054 21.5817 2.49079L21.6224 2.51103H21.6213Z" fill="#FFFFFF"/>
<path d="M26.9234 4.89339C26.9257 5.7074 26.5131 6.27856 25.7884 6.57314C24.9824 6.90144 24.1413 7.14429 23.3138 7.41975C22.9577 7.53781 22.5994 7.65024 22.2388 7.75368C22.1472 7.77954 22.0432 7.76043 21.9448 7.76155C21.9448 7.65586 21.912 7.53781 21.9471 7.44674C22.2342 6.70581 22.5248 5.96487 22.8322 5.23181C23.0233 4.77646 23.229 4.32448 23.4585 3.88599C23.8689 3.10458 24.7201 2.6987 25.594 2.99665C26.3525 3.25524 26.9189 4.01754 26.9223 4.89226L26.9234 4.89339Z" fill="#FFFFFF"/>
<path d="M31.1398 25.9669C31.0765 27.4274 29.5628 28.4078 28.3747 27.7186C28.0559 27.5331 27.7834 27.1879 27.6082 26.854C27.364 26.3885 27.2103 25.8713 27.0543 25.3642C26.818 24.5952 26.6111 23.816 26.3998 23.0391C26.3783 22.9593 26.3839 22.8502 26.4246 22.7839C26.445 22.7513 26.5829 22.7614 26.6518 22.7907C27.7382 23.2584 28.8359 23.7036 29.902 24.2129C30.6469 24.5693 31.1308 25.1596 31.1387 25.9658L31.1398 25.9669Z" fill="#FFFFFF"/>
<path d="M15.7317 2.67943C15.7181 3.11342 15.5271 3.65423 15.2512 4.17479C14.8036 5.01691 14.3683 5.86578 13.9286 6.71127C13.8981 6.76974 13.8732 6.83045 13.8382 6.88555C13.7172 7.07218 13.6121 7.07106 13.5216 6.86531C13.3159 6.39421 13.1226 5.91637 12.9259 5.44191C12.7179 4.94046 12.4884 4.44575 12.3109 3.93418C12.1764 3.54854 12.0611 3.14491 12.0204 2.74015C11.8757 1.29763 13.2435 0.582561 14.3005 0.838908C15.1484 1.04354 15.7362 1.726 15.7317 2.68056V2.67943Z" fill="#FFFFFF"/>
<path d="M8.73992 3.03067C9.21924 3.0509 9.7223 3.32637 10.014 3.85592C10.3735 4.50803 10.6651 5.1995 10.9703 5.87971C11.227 6.45087 11.4644 7.03215 11.7029 7.61118C11.7345 7.68763 11.7583 7.81806 11.7176 7.86078C11.6724 7.90913 11.5412 7.91475 11.4632 7.89001C10.2977 7.5291 9.11976 7.2008 7.97685 6.7803C7.025 6.42951 6.51063 5.66272 6.70734 4.58674C6.86447 3.72325 7.70554 3.02842 8.73992 3.02954V3.03067Z" fill="#FFFFFF"/>
<path d="M2.54062 9.19738C2.58923 8.01796 3.69257 6.99145 5.04348 7.38159C5.54428 7.52663 5.89699 7.9179 6.07447 8.39574C6.40457 9.28845 6.68606 10.2003 6.98111 11.1054C7.09755 11.4607 7.20042 11.8204 7.30103 12.1814C7.32138 12.2556 7.32929 12.3905 7.29312 12.4107C7.22755 12.4489 7.11224 12.4489 7.03876 12.4175C5.9829 11.9756 4.91461 11.5607 3.88362 11.0671C3.04594 10.6669 2.5327 10.0721 2.54062 9.19513V9.19738Z" fill="#FFFFFF"/>
<path d="M0.431875 14.7134C0.436397 14.0995 0.602576 13.6183 1.01633 13.2214C1.47982 12.7784 2.03488 12.6896 2.61142 12.8425C3.20605 12.9999 3.78372 13.2327 4.35913 13.4553C4.96167 13.6891 5.55517 13.9466 6.14754 14.2041C6.28772 14.2648 6.40981 14.366 6.53981 14.4492C6.42224 14.5448 6.31485 14.6594 6.18484 14.7348C5.46134 15.1474 4.73897 15.5645 4.00077 15.9513C3.59606 16.1627 3.17101 16.3426 2.73917 16.4921C1.46965 16.9328 0.356133 15.7275 0.431875 14.7134Z" fill="#FFFFFF"/>
<path d="M4.68388 27.996C3.24253 27.9859 2.25223 26.3635 2.93052 25.1829C3.10348 24.8816 3.40871 24.6151 3.71393 24.4397C4.2803 24.1137 4.88736 23.8573 5.48538 23.5897C6.00653 23.357 6.53898 23.1456 7.06917 22.932C7.16752 22.8927 7.28057 22.8882 7.38683 22.8679C7.38796 22.9725 7.41397 23.0849 7.38683 23.1827C7.12456 24.1575 6.87473 25.1368 6.57742 26.1015C6.44628 26.5254 6.25975 26.9481 6.01444 27.3158C5.69791 27.7914 5.21294 28.0365 4.68275 27.9971L4.68388 27.996Z" fill="#FFFFFF"/>
<path d="M26.982 30.2651C26.956 31.494 25.8629 32.4148 24.7234 32.1641C24.244 32.0584 23.871 31.7683 23.6573 31.3557C23.2515 30.5698 22.8999 29.7558 22.5404 28.9474C22.3505 28.5201 22.1889 28.0805 22.0238 27.6443C21.9933 27.5644 22.0057 27.47 21.9978 27.3823C22.086 27.3756 22.1821 27.3407 22.2601 27.3654C23.4143 27.7252 24.5764 28.0659 25.7159 28.4673C26.5694 28.7675 26.999 29.4365 26.9809 30.2662L26.982 30.2651Z" fill="#FFFFFF"/>
<path d="M2.24747 22.5928C1.18822 22.622 0.269145 21.3313 0.541589 20.2474C0.612808 19.9641 0.728117 19.6695 0.902209 19.439C1.48327 18.6688 2.21695 18.5789 3.0908 18.9432C3.82335 19.249 4.50728 19.6684 5.2093 20.0428C5.6061 20.2541 5.99837 20.4723 6.38839 20.6971C6.46187 20.7387 6.50935 20.8253 6.56813 20.8905C6.5003 20.9479 6.44152 21.0243 6.36352 21.058C5.39244 21.4774 4.42476 21.9092 3.44125 22.2982C3.06367 22.4477 2.64653 22.4972 2.24747 22.5928Z" fill="#FFFFFF"/>
<path d="M6.87988 30.3362C6.89232 29.5761 7.16928 29.0792 7.69156 28.7981C8.24775 28.4979 8.85482 28.2809 9.4551 28.0729C10.1549 27.83 10.8716 27.6344 11.5838 27.4264C11.672 27.4006 11.776 27.4264 11.8732 27.4298C11.8641 27.5186 11.8743 27.6142 11.8438 27.694C11.4402 28.7228 11.0434 29.7538 10.6195 30.7735C10.3708 31.3706 10.0271 31.9125 9.37596 32.152C8.49646 32.4746 7.47338 31.9518 7.08224 31.0614C6.96354 30.7927 6.92284 30.4902 6.88214 30.3373L6.87988 30.3362Z" fill="#FFFFFF"/>
<path d="M25.6004 19.4231C24.8678 19.3961 24.1443 18.9048 23.8843 18.2347C23.6074 17.5207 23.7803 16.7337 24.3275 16.221C24.999 15.5914 25.8412 15.507 26.6495 16.0377C27.235 16.4211 27.7901 16.8517 28.3508 17.2722C28.5905 17.4521 28.6063 17.5758 28.3791 17.7726C27.694 18.3673 27.0044 18.9632 26.1441 19.3039C25.9734 19.3714 25.7824 19.3849 25.6004 19.4231Z" fill="#FFFFFF"/>
<path d="M21.2075 11.1806C21.2222 10.3385 21.7332 9.64138 22.5664 9.43113C23.2831 9.25124 24.0156 9.12419 24.747 9.01176C25.0998 8.95779 25.1845 9.06123 25.1269 9.40865C24.9912 10.2294 24.8917 11.0614 24.6713 11.8608C24.3966 12.8592 23.135 13.3697 22.2193 12.8952C21.5376 12.5422 21.1883 11.9597 21.2075 11.1806Z" fill="#FFFFFF"/>
<path d="M15.0118 8.64115C14.9847 8.14644 15.2289 7.71245 15.4832 7.3032C15.7986 6.79612 16.1717 6.32503 16.5301 5.84607C16.729 5.58073 16.8737 5.59309 17.0862 5.85169C17.6142 6.49818 18.1059 7.1649 18.4677 7.92495C18.7458 8.5096 18.644 9.51138 17.9036 10.1275C17.3813 10.5626 16.4453 10.6649 15.8755 10.2489C15.351 9.86667 14.9881 9.35959 15.0118 8.64227V8.64115Z" fill="#FFFFFF"/>
<path d="M12.4569 11.3741C12.4546 12.0318 12.1573 12.5985 11.5051 12.9639C10.8946 13.3068 10.2864 13.2326 9.7076 12.9065C9.18985 12.6153 8.95245 12.0993 8.83262 11.5562C8.68566 10.8828 8.602 10.1947 8.50252 9.51108C8.46295 9.23674 8.57148 9.1007 8.84392 9.14567C9.64543 9.28059 10.4582 9.3919 11.236 9.61789C11.9945 9.83826 12.4501 10.5545 12.4569 11.3741Z" fill="#FFFFFF"/>
<path d="M25.2196 25.5575C25.1902 26.0668 25.1597 26.1185 24.6634 26.0803C23.8868 26.0196 23.1136 25.9184 22.3821 25.6216C21.6756 25.3349 21.142 24.4635 21.2392 23.7597C21.3715 22.8085 21.9967 22.1418 22.8863 22.0766C23.7523 22.0125 24.5086 22.4397 24.7855 23.446C24.9766 24.1375 25.0783 24.8536 25.2196 25.5586V25.5575Z" fill="#FFFFFF"/>
<path d="M9.93585 17.6545C10.0161 18.852 8.8099 19.7368 7.81282 19.4681C7.5189 19.3883 7.22159 19.2646 6.96949 19.0971C6.43252 18.7395 5.91476 18.3516 5.40718 17.9536C5.137 17.7422 5.13248 17.5938 5.38683 17.3847C6.0719 16.8203 6.74905 16.2413 7.59917 15.9175C8.28649 15.6566 9.22817 15.9669 9.63288 16.6561C9.80698 16.9518 9.8895 17.3004 10.0139 17.6242L9.93585 17.6545Z" fill="#FFFFFF"/>
<path d="M9.10963 26.2018C8.67439 26.1625 8.61335 26.1164 8.64161 25.697C8.70153 24.82 8.79875 23.9475 9.16163 23.1302C9.51094 22.3431 10.5905 21.9237 11.3807 22.261C12.5643 22.7659 12.9476 24.2241 12.1076 25.1955C11.8657 25.4744 11.478 25.6869 11.1173 25.7926C10.4639 25.9837 9.78113 26.0703 9.10963 26.2007V26.2018Z" fill="#FFFFFF"/>
</svg>
