<svg width="387" height="61" viewBox="0 0 387 61" fill="none" xmlns="http://www.w3.org/2000/svg">
<g clip-path="url(#clip0_2520_11110)">
<path d="M58.9033 19.2221L58.6259 16.5539C58.6066 16.3647 58.5175 16.1894 58.3761 16.0622C58.2347 15.9349 58.0511 15.8648 57.8609 15.8654H57.7812L52.6472 16.4057C51.9169 15.8563 51.0613 15.4975 50.1575 15.3617C50.1432 14.5855 49.9583 12.7923 48.6624 11.3259C47.7587 10.3026 46.4947 9.68898 44.9965 9.54872C44.7366 7.97394 44.1501 6.50914 43.342 5.41731L43.3149 5.14794L44.1581 5.06028C44.2584 5.04974 44.3558 5.01952 44.4445 4.97136C44.5331 4.92319 44.6115 4.85802 44.675 4.77957C44.7385 4.70112 44.7859 4.61093 44.8145 4.51414C44.8432 4.41736 44.8524 4.31588 44.8418 4.21551L44.5661 1.55368C44.556 1.4533 44.5259 1.35593 44.4778 1.26727C44.4296 1.17861 44.3643 1.10042 44.2856 1.03726C44.1502 0.927516 43.9817 0.866842 43.8074 0.865117C43.7809 0.863483 43.7542 0.863483 43.7277 0.865117L35.7263 1.7051C35.5239 1.7264 35.3382 1.82716 35.21 1.98524C35.0818 2.14333 35.0215 2.34583 35.0425 2.54828L35.1637 3.69749L35.0043 3.76762L33.5299 2.23428C33.4583 2.15979 33.3724 2.10051 33.2774 2.05998C33.1824 2.01944 33.0801 1.99849 32.9768 1.99838H32.8971L30.1954 2.2805C30.0937 2.29235 29.9953 2.3244 29.9061 2.37476C29.8168 2.42512 29.7386 2.49278 29.6758 2.57378C29.6132 2.65227 29.5669 2.74245 29.5395 2.83906C29.5121 2.93567 29.5043 3.03676 29.5164 3.13643L29.569 3.64329L29.6264 4.21072L29.3889 4.22507L28.7514 2.94995C28.688 2.82238 28.5903 2.71508 28.4692 2.64016C28.3481 2.56523 28.2084 2.52568 28.066 2.52597H27.9847L25.1603 2.82084C25.0058 2.83794 24.8601 2.90102 24.7418 3.0019C24.6236 3.10278 24.5384 3.23682 24.4972 3.38668L23.9521 5.41891C23.3709 5.22479 22.7636 5.12 22.151 5.10809L22.0267 3.92223C22.0164 3.82165 21.9863 3.7241 21.9382 3.6352C21.89 3.54629 21.8248 3.46779 21.7461 3.40421C21.6103 3.29548 21.442 3.23543 21.268 3.23366H21.1883L18.2268 3.55244C18.0861 3.56709 17.9522 3.62021 17.8397 3.70597C17.7273 3.79172 17.6406 3.9068 17.5892 4.03858C17.1168 3.87774 16.6203 3.79851 16.1213 3.80428C15.9125 3.80468 15.704 3.81586 15.4964 3.83775L12.0106 4.20116C11.9097 4.21222 11.812 4.24313 11.7231 4.29209C11.6342 4.34105 11.5558 4.40711 11.4925 4.48647C11.43 4.56529 11.3836 4.65575 11.3563 4.75261C11.3289 4.84947 11.3211 4.95079 11.3332 5.05071L12.1429 12.7588C10.0708 14.2189 9.65159 16.3037 9.92096 18.2148C8.38762 18.6547 6.51637 19.8087 5.68914 21.358L0.67949 21.884C0.477815 21.9049 0.292641 22.0048 0.164491 22.162C0.0363417 22.3191 -0.0243477 22.5206 -0.00429599 22.7223L0.274638 25.3905C0.285134 25.4908 0.315315 25.5881 0.363453 25.6767C0.41159 25.7653 0.476738 25.8436 0.555165 25.907C0.690846 26.0162 0.85919 26.0768 1.03334 26.0791H1.11303L1.95621 25.9899L2.48857 31.0648C2.51115 31.2515 2.60127 31.4235 2.74192 31.5483C2.88257 31.6731 3.06402 31.7421 3.25205 31.7423C3.2786 31.7438 3.30521 31.7438 3.33175 31.7423L3.71907 31.7024C3.22815 33.1098 3.36682 34.785 4.10639 36.3247C4.70631 37.5758 5.65024 38.63 6.82765 39.3639C8.00506 40.0978 9.3672 40.4811 10.7546 40.4689C11.0832 40.4686 11.4116 40.4494 11.738 40.4115C12.6944 41.9337 14.8732 42.1106 16.4353 42.1106C17.1047 42.1106 17.857 42.074 18.7879 41.9943L19.2453 45.7575L18.485 52.2686L16.9294 56.3936L15.2972 57.0057C15.1401 57.0645 15.0106 57.1797 14.9337 57.3287C14.8568 57.4778 14.8381 57.6501 14.8812 57.8122L15.3594 59.6292C15.3972 59.7741 15.482 59.9024 15.6006 59.9938C15.7191 60.0853 15.8647 60.1348 16.0145 60.1345C16.0985 60.1349 16.1818 60.1192 16.2599 60.0883L19.7394 58.7351C19.8379 58.6964 19.926 58.6354 19.9968 58.5568C20.0676 58.4783 20.1192 58.3843 20.1475 58.2824L22.3582 50.1933L25.546 58.1915C25.5968 58.3187 25.6849 58.4276 25.7987 58.5038C25.9124 58.5801 26.0466 58.6201 26.1836 58.6187C26.267 58.6182 26.3496 58.6025 26.4274 58.5725L31.2092 56.7235C31.3415 56.6724 31.4544 56.5811 31.5322 56.4624C31.6099 56.3438 31.6486 56.2038 31.6427 56.0621L31.52 53.3142L32.8302 49.0298L36.0419 57.0854C36.0918 57.2115 36.1786 57.3198 36.2909 57.396C36.4032 57.4721 36.5358 57.5128 36.6715 57.5125C36.7548 57.5126 36.8374 57.4974 36.9154 57.4679L41.6971 55.6158C41.8292 55.5646 41.942 55.4732 42.0195 55.3545C42.0969 55.2359 42.1353 55.0959 42.129 54.9543L42.019 52.4503L43.1937 48.0192L46.372 56.0031C46.4381 56.1692 46.5671 56.3025 46.731 56.3738C46.895 56.4452 47.0804 56.4489 47.247 56.384L52.0288 54.5287C52.1612 54.4779 52.2742 54.3867 52.3518 54.2679C52.4293 54.1491 52.4674 54.0089 52.4607 53.8673L52.3507 51.3712C52.3466 51.2682 52.319 51.1674 52.2699 51.0767C52.2208 50.986 52.1516 50.9077 52.0676 50.8478C51.9836 50.788 51.887 50.7482 51.7852 50.7314C51.6835 50.7147 51.5792 50.7214 51.4805 50.7512L49.249 51.4142L45.8046 45.7272L44.4035 39.3516C46.9219 39.1093 49.6523 38.6136 51.0214 36.3231C53.9797 35.9852 56.0693 33.6342 56.8296 31.4458C57.4959 29.5331 57.2998 27.6204 56.2957 26.1859L57.2265 26.0887C57.4291 26.067 57.6147 25.9659 57.7429 25.8076C57.8711 25.6492 57.9313 25.4465 57.9103 25.2439L57.3763 20.1546L58.2195 20.0653C58.4219 20.044 58.6076 19.9433 58.7358 19.7852C58.864 19.6271 58.9242 19.4246 58.9033 19.2221ZM28.9809 51.1672L28.1983 53.2393L24.9754 47.9172L23.5409 41.4236L29.2789 40.8211L29.746 44.6465L28.9809 51.1672ZM39.3078 50.0722L38.5969 51.9594L35.4729 46.8063L34.0384 40.2983L39.5963 39.715L40.0649 43.5563L39.3078 50.0722Z" fill="white"/>
<path d="M48.9387 52.2156L45.1659 45.985L43.3728 37.8195L52.7976 30.1942L51.6005 28.1078L49.2447 31.1362L49.3515 28.7454L48.2964 28.6704L48.1641 31.5506L42.5216 36.6639L41.7566 34.0722L40.3141 34.2316L40.5101 37.0799L37.7718 35.0779L42.4643 31.2829L41.2784 29.1932L38.9242 32.2217L39.031 29.8308L37.9742 29.7559L37.8403 32.6393L36.3213 34.0164L33.8667 32.2217L33.0602 30.2484L32.8179 30.3058L33.2292 31.7865L30.8574 30.1847L28.4172 33.3215L28.5224 30.9306L27.464 30.8557L27.3349 33.7359L25.9004 35.0333L23.5382 33.3087L22.7413 31.337L22.499 31.3928L22.8528 32.6998L19.7336 31.4359L18.8968 33.2976L24.5185 36.2829L21.6925 38.8443L20.9274 36.2606L19.4929 36.4105L19.6889 39.2588L13.0408 34.4117L12.2438 32.44L11.9999 32.4974L12.3538 33.8156L9.24088 32.5404L8.39611 34.4069L19.249 40.1657L19.928 45.7444L19.1454 52.4244L17.4527 56.9272L15.54 57.6477L16.0182 59.4647L19.4977 58.1115L22.2424 48.0699L26.1777 57.9521L30.9594 56.1032L30.8319 53.2341L32.759 47.0067L36.68 56.8459L41.4617 54.9954L41.3469 52.3878L41.3565 52.3495L43.0715 45.8735L47.0101 55.7557L51.7918 53.902L51.6818 51.4043L48.9387 52.2156ZM30.4239 44.6828L29.6429 51.3294L28.5271 54.2797L28.1095 54.4072L24.3352 48.1735L22.5404 40.0111L26.1012 37.1293L29.7417 39.0611L30.4287 44.6541L30.4239 44.6828ZM32.1931 37.7445L31.4296 35.1592L29.9856 35.3107L30.1816 38.159L27.37 36.106L31.0089 33.1637L34.9426 35.2501L32.1931 37.7445ZM40.7508 43.5926L39.9714 50.2424L39.9602 50.2711L38.9242 53.0253L38.5209 53.1465L34.8358 47.0705L34.8279 47.029L33.0427 38.9001L36.5254 36.0869L40.0734 37.9693L40.754 43.548L40.7508 43.5926ZM39.9252 36.012L39.7929 34.0993L38.6166 35.0556L39.9252 36.012ZM28.2084 36.0853L29.5967 37.099L29.4564 35.0764L28.2084 36.0853ZM31.0662 33.7741L29.7752 34.8181L31.7978 34.6125L32.4529 36.8265L34.0596 35.3712L31.0662 33.7741ZM26.1634 37.7398L23.1079 40.2103L23.229 40.7602L29.3576 40.1227L29.2683 39.3926L26.1634 37.7398ZM36.5843 36.7021L33.6101 39.1057L33.7312 39.6572L39.6845 39.0324L39.5952 38.3024L36.5843 36.7021ZM30.3155 15.4665C30.2023 14.4114 29.1169 13.5921 27.9932 13.7132C27.435 13.7713 26.9209 14.0432 26.5587 14.4719C26.3869 14.6668 26.2561 14.8942 26.1739 15.1406C26.0918 15.3871 26.06 15.6475 26.0805 15.9064C26.134 16.5016 26.417 17.0526 26.8695 17.443C27.2348 17.751 27.6954 17.9233 28.1733 17.9307C28.1733 17.9307 28.3024 17.9307 28.4219 17.9164C28.5415 17.902 28.6865 17.8765 28.6865 17.8765C29.7481 17.6438 30.4398 16.6492 30.3155 15.4665ZM26.9332 6.241L26.369 8.73865L27.9884 8.56969L26.9332 6.241ZM15.2977 8.63186C15.9863 8.55694 16.6972 8.47247 16.6015 7.56713C16.4995 6.61078 15.8524 6.6841 15.1017 6.77017L14.7733 6.80205L14.9694 8.6717L15.2977 8.63186ZM25.5657 22.2677C25.2931 22.1721 24.9281 22.2103 24.5758 22.247L24.2459 22.2805L24.4436 24.1485L24.7719 24.1151C25.4589 24.0433 26.1682 23.9668 26.0725 23.0519C26.0136 22.612 25.8542 22.3634 25.5545 22.2598L25.5657 22.2677ZM58.1403 19.311L58.0877 18.8026L57.9156 17.1513L57.8614 16.6428L57.3529 16.6954L52.4612 17.2119C51.7025 16.5313 50.3716 16.0786 49.3579 16.0563C49.6066 14.0336 48.5514 10.3039 44.3259 10.2991C44.1586 8.70518 43.5816 6.95188 42.6061 5.72617L42.4754 4.47814L43.5752 4.36338L44.0837 4.30918L44.0295 3.80073L43.8557 2.15103L43.8031 1.64258L43.2947 1.69677L38.25 2.21798L36.3102 2.41562L35.8017 2.46822L35.8559 2.97668L35.9834 4.19283C35.5909 4.33935 35.2071 4.50859 34.8342 4.69969L33.1495 2.95277L32.9757 2.77266L32.7287 2.79816L30.7825 3.00218L30.2804 3.05318L30.333 3.56323L30.4781 4.99775C29.9654 4.95277 29.4493 4.96721 28.94 5.04079L28.2211 3.60627L28.0617 3.28749L27.7095 3.32415L25.58 3.5473L25.2309 3.58396L25.1401 3.92346L24.4436 6.51674C23.712 6.01307 22.6377 5.82339 21.463 5.87918L21.3195 4.50683L21.2653 4.00953L20.7584 4.06372L18.8123 4.26774L18.3038 4.32193L18.358 4.83039L18.4297 5.51099C18.2871 5.34337 18.1219 5.19638 17.9388 5.07426C17.3315 4.66303 16.5362 4.50683 15.5767 4.60724L12.5992 4.92602L12.0908 4.96587L12.1434 5.47433L12.9308 12.9657L12.9451 13.0996C10.8443 14.295 10.1813 16.9058 10.8348 18.7771C9.05121 19.0703 6.99985 20.371 6.08813 22.0828L5.76935 22.1163L1.25382 22.5945L0.745361 22.6471L0.79796 23.1555L0.971696 24.8052L1.02589 25.3153L1.53275 25.2611L2.63255 25.1447L3.19998 30.4684L3.25258 30.9768L3.76103 30.9226L5.09672 30.7872C2.47953 34.0626 5.87296 40.7124 12.188 39.5616C12.8479 41.4376 15.6611 41.4918 18.8697 41.2113L18.782 40.4908L7.73305 34.6332L8.9731 31.8806L11.5855 32.9437L11.3576 32.1197L12.545 31.8439L13.46 34.0833L19.0992 38.2004L18.9398 35.9562L21.2924 35.7107L21.9475 37.9231L23.6307 36.3977L18.2305 33.5287L19.469 30.7872L22.083 31.8471L21.8551 31.023L23.0409 30.7473L23.9574 32.9883L25.8701 34.383L26.8376 33.5079L26.9795 30.3201L29.0515 30.4652L29.0053 31.7435L30.7586 29.4929L32.3748 30.5863L32.1931 29.928L33.379 29.6507L34.2843 31.9029L36.2799 33.3613L37.3335 32.405L37.4817 29.2172L39.5538 29.3622L39.4948 30.6501L41.3326 28.2911L43.1257 31.4183L40.271 33.7279L42.1216 33.5303L42.7767 35.7458L47.6588 31.3227L47.8054 28.1349L49.8775 28.2831L49.8185 29.571L51.6563 27.212L53.4495 30.3361L43.9307 38.0362L44.0614 38.6276C46.7041 38.3885 49.3993 37.9438 50.5358 35.5992C55.4897 35.3744 58.0272 29.2857 55.4243 26.1138C55.0322 25.6356 54.8043 25.5735 54.8043 25.5735L56.6373 25.3679L57.1457 25.3153L57.0915 24.8068L56.5337 19.4704L57.6319 19.3557L58.1403 19.311ZM32.7813 3.30662L36.8473 7.53844L36.3692 2.93045L43.223 2.21001L43.3967 3.8597L41.7884 4.02866L42.3941 9.87032L40.4512 10.0775L39.8439 4.23427L38.4827 4.37613L39.0947 10.2258L37.1502 10.4298L33.0825 6.18362L33.5607 10.8059L31.6177 10.9956L30.8319 3.51861L32.7813 3.30662ZM35.2439 18.8599L33.2993 19.0656L32.5135 11.5742L35.4208 11.2682C36.1875 11.1885 36.8553 11.3128 37.3335 11.6268C37.8627 11.9711 38.1846 12.5497 38.2627 13.302C38.3663 14.2743 37.9631 15.0808 37.1852 15.4601L36.8665 15.6195L39.5251 18.4105L37.1024 18.6655L34.941 15.9638L35.2439 18.8599ZM20.811 4.5658L21.4231 10.4075L24.002 10.1381L25.6326 4.05735L27.7573 3.8342L31.3627 11.0323L29.2906 11.2491L28.6674 9.99783L25.9881 10.2815L25.6071 11.6364L19.6539 12.2628L18.8665 4.77142L20.811 4.5658ZM12.6518 5.42332L15.6293 5.10454C16.4677 5.01688 17.1482 5.14598 17.6551 5.48708C18.2002 5.85527 18.5222 6.46096 18.6115 7.28501C18.7023 8.14731 18.5381 8.82312 18.1333 9.29173C17.7284 9.76034 17.1004 10.0154 16.2365 10.1062L15.1224 10.2258L15.3838 12.7091L13.4392 12.9131L12.6518 5.42332ZM11.874 29.5614L11.5552 26.49L8.74518 26.7849L9.06396 29.8547L7.11939 30.0587L6.50733 24.2218L5.03775 24.3812L5.64981 30.2197L3.70365 30.4237L3.09318 24.5837L1.48493 24.7542L1.3112 23.1045L8.28454 22.3665L8.58578 25.2547L11.3958 24.9598L11.0898 22.0733L13.036 21.8613L13.8218 29.3526L11.874 29.5614ZM14.743 29.2586L13.9588 21.7672L18.213 21.3178L18.3851 22.977L16.074 23.2193L16.2078 24.4705L18.3979 24.2378L18.5716 25.8875L16.3816 26.1186L16.5155 27.4097L18.825 27.1674L18.9972 28.8171L14.743 29.2586ZM21.7562 20.2801L19.8117 20.4873L19.0275 12.996L23.331 12.5433L23.5047 14.193L21.1521 14.4416L21.2844 15.6929L23.4155 15.4681L23.5908 17.1178L21.4566 17.3426L21.7562 20.2801ZM27.5979 24.7781C27.2026 25.2292 26.565 25.5034 25.7043 25.5926L24.85 25.6851L24.5966 25.7122L24.8612 28.1955L22.9086 28.3963L22.1244 20.9049L25.1002 20.5862C26.8535 20.4029 27.9119 21.1759 28.0777 22.765C28.1685 23.6353 28.0059 24.3111 27.5963 24.7781H27.5979ZM24.0642 16.1137C24.0079 15.5878 24.0651 15.056 24.232 14.5541C24.3989 14.0523 24.6716 13.5921 25.0317 13.2048C25.7557 12.4251 26.7378 11.9341 27.7959 11.8227C28.8541 11.7114 29.9168 11.9872 30.7873 12.5991C31.2202 12.9039 31.5829 13.2979 31.851 13.7546C32.119 14.2112 32.2862 14.7199 32.3414 15.2466C32.4196 15.793 32.3841 16.3496 32.2369 16.8816C32.0897 17.4136 31.834 17.9094 31.486 18.3378C31.1379 18.7662 30.705 19.118 30.2145 19.3711C29.724 19.6242 29.1864 19.773 28.6355 19.8083C26.2303 20.0586 24.3097 18.5045 24.0642 16.1137ZM46.1287 25.9608L42.0562 21.7178L42.5344 26.3402L40.5882 26.5442L38.7521 26.7386L38.1288 25.4874L35.4511 25.7695L35.0765 27.1212L33.014 27.3363L29.1217 27.7476L28.3359 20.2562L30.2804 20.0522L30.8941 25.8955L33.4683 25.6229L35.1004 19.5437L37.2235 19.319L40.5117 25.7823L39.8072 19.0464L41.7566 18.844L45.821 23.0742L45.3429 18.4678L47.2858 18.2622L48.0732 25.7536L46.1287 25.9608ZM55.9758 19.0146L56.5799 24.8594L54.6369 25.0634L54.0296 19.2202L50.3302 19.6123L50.4609 20.8619L52.6541 20.6324L52.8262 22.2805L50.6346 22.5132L50.7685 23.8058L53.0733 23.5604L53.2486 25.2117L48.9897 25.658L48.2039 18.1666L52.3576 17.7299L57.4039 17.1991L57.5761 18.8488L55.9758 19.0146ZM35.8352 24.2187L37.453 24.0481L36.3963 21.7178L35.8352 24.2187ZM34.8789 12.8382L34.6206 12.8621L34.8167 14.7349L35.0733 14.703C35.6694 14.6313 36.3484 14.4448 36.2576 13.6367C36.1875 13.0119 35.7491 12.7569 34.8741 12.8382H34.8789Z" fill="#082447"/>
</g>
<line x1="71.4012" y1="-2.19464e-08" x2="71.4012" y2="60.4991" stroke="#082447" stroke-width="1.00415"/>
<g clip-path="url(#clip1_2520_11110)">
<path d="M123.706 1.10742V7.05814L123.312 6.82011C123.312 6.82011 119.491 1.58348 111.139 1.58348C110.469 1.58348 109.878 1.86118 109.445 2.29757C109.012 2.73395 108.736 3.32902 108.736 4.00344V34.3918H103.654V4.00344C103.654 3.32902 103.378 2.73395 102.945 2.29757C102.512 1.86118 101.921 1.58348 101.251 1.58348C92.86 1.58348 89.0781 6.78044 88.9993 6.82011L88.6448 7.05814V1.10742H123.706Z" fill="#082447"/>
<path d="M151.124 1.10742V7.05814L150.77 6.82011C150.77 6.82011 149.273 5.90767 146.87 4.83654C142.063 2.69428 136.863 1.62315 131.585 1.62315V16.5793H141.827V17.0554H131.585V34.3918H126.503V1.10742H151.124Z" fill="#082447"/>
<path d="M178.542 1.10742V7.05814L178.188 6.82011C178.188 6.82011 176.691 5.90767 174.288 4.83654C169.481 2.69428 164.281 1.62315 159.003 1.62315V16.5793H169.245V17.0554H159.003V34.3918H153.921V1.10742H178.542Z" fill="#082447"/>
<path d="M205.961 1.10742V7.05814L205.606 6.82011C205.606 6.82011 204.109 5.90767 201.706 4.83654C196.9 2.69428 191.7 1.62315 186.421 1.62315V16.5793H196.664V17.0554H186.421V34.3918H181.339V1.10742H205.961Z" fill="#082447"/>
<path d="M257.883 22.9267C257.568 24.95 257.055 26.7749 256.346 28.3221C254.022 33.3603 250.319 34.2728 249.255 34.3918H243.977L242.677 28.3617C240.352 33.3207 236.689 34.1934 235.625 34.3521H230.346L223.137 1.02808H228.416L235.507 33.8364C236.413 33.7174 240.037 32.8843 242.243 28.0443C242.322 27.8857 242.401 27.727 242.48 27.5286L236.767 1.06775H242.046L249.137 33.8761C249.649 33.7967 251.146 33.4793 252.762 32.2099C254.849 30.5437 256.031 28.0443 256.149 25.3864C256.701 13.6436 250.634 1.58348 250.555 1.46446L250.358 1.10742H255.637L255.716 1.26611C255.716 1.26611 259.577 12.0567 257.883 22.9267Z" fill="#082447"/>
<path d="M288.61 34.4315H283.489L277.974 20.5464C275.689 19.5943 273.049 19.7133 270.922 20.9432C270.449 21.2209 270.016 21.4986 269.622 21.8159C266.628 24.1565 264.973 27.846 265.092 31.6941C265.131 33.2016 265.21 34.1141 265.21 34.1538V34.4315H258.592L271.316 3.60672L270.331 1.10742H275.452L288.728 34.4315H288.61ZM277.698 19.9117L271.474 4.28114L267.376 14.1593C266.195 17.0157 265.446 20.0704 265.21 23.1648C267.022 21.3399 270.213 18.9596 274.467 19.2373C274.546 19.2373 274.586 19.2373 274.664 19.2373C275.61 19.3563 276.634 19.5943 277.698 19.9514V19.9117Z" fill="#082447"/>
<path d="M318.786 1.10742V7.05814L318.432 6.82012C318.432 6.82012 314.61 1.62315 306.219 1.62315C305.55 1.62315 304.959 1.90085 304.525 2.33724C304.092 2.77362 303.816 3.3687 303.816 4.04311V34.4315H298.735V4.00344C298.735 3.32902 298.459 2.73395 298.025 2.29757C297.592 1.86118 297.001 1.58348 296.331 1.58348C287.98 1.58348 284.198 6.74077 284.119 6.78044L283.765 7.01847V1.10742H318.826H318.786Z" fill="#082447"/>
<path d="M347.78 22.8076L352.271 25.1085L352.153 25.3466C349.12 30.9403 343.132 34.3917 336.514 34.3917C326.823 34.3917 318.944 26.9334 318.944 17.7296C318.944 8.52587 326.823 1.06763 336.514 1.06763C343.132 1.06763 349.12 4.51905 352.153 10.1127L352.271 10.3508L347.78 12.6517L347.702 12.374C346.047 5.90755 341.556 1.58336 336.514 1.58336C329.974 1.58336 324.656 8.84324 324.656 17.7296C324.656 26.6161 329.974 33.8759 336.514 33.8759C341.556 33.8759 346.047 29.5517 347.702 23.0853L347.78 22.7679V22.8076Z" fill="#082447"/>
<path d="M380.517 1.10742V34.4315H375.435V17.095H360.78V34.4315H355.698V1.10742H360.78V16.5793H375.435V1.10742H380.517Z" fill="#082447"/>
</g>
<path d="M95.1048 54.9901H94.1801V41.8652H101.362V42.7001H95.1048V48.293H101.021V49.1189H95.1048V54.9901ZM119.985 48.4097C119.985 49.4092 119.862 50.3219 119.617 51.1478C119.371 51.9737 119.003 52.6859 118.512 53.2844C118.022 53.8829 117.408 54.3467 116.672 54.6759C115.942 55.0051 115.089 55.1697 114.114 55.1697C113.132 55.1697 112.273 55.0051 111.537 54.6759C110.801 54.3467 110.187 53.8829 109.697 53.2844C109.212 52.6799 108.847 51.9647 108.601 51.1388C108.356 50.3069 108.233 49.3912 108.233 48.3917C108.233 47.0631 108.458 45.893 108.907 44.8816C109.361 43.8701 110.029 43.0801 110.909 42.5116C111.794 41.943 112.887 41.6587 114.185 41.6587C115.43 41.6587 116.484 41.931 117.345 42.4756C118.213 43.0143 118.869 43.7893 119.311 44.8008C119.76 45.8063 119.985 47.0092 119.985 48.4097ZM109.203 48.4007C109.203 49.5738 109.379 50.6091 109.733 51.5069C110.086 52.3986 110.627 53.0959 111.357 53.5986C112.088 54.1014 113.009 54.3527 114.122 54.3527C115.248 54.3527 116.172 54.1043 116.897 53.6076C117.621 53.1108 118.156 52.4166 118.503 51.5248C118.851 50.6331 119.024 49.5947 119.024 48.4097C119.024 46.5364 118.614 45.0821 117.794 44.0467C116.98 43.0113 115.777 42.4936 114.185 42.4936C113.066 42.4936 112.135 42.742 111.393 43.2387C110.657 43.7355 110.107 44.4267 109.742 45.3125C109.382 46.1983 109.203 47.2277 109.203 48.4007ZM131.704 41.8652C132.745 41.8652 133.613 41.9789 134.307 42.2063C135.007 42.4337 135.534 42.8078 135.887 43.3285C136.24 43.8492 136.417 44.5524 136.417 45.4382C136.417 46.1025 136.294 46.6741 136.049 47.1529C135.809 47.6257 135.477 48.0147 135.052 48.3199C134.627 48.6251 134.137 48.8586 133.58 49.0202L137.18 54.9901H136.085L132.7 49.2805H129.441V54.9901H128.517V41.8652H131.704ZM131.614 42.6821H129.441V48.4636H132.054C133.125 48.4636 133.96 48.2062 134.559 47.6915C135.163 47.1768 135.465 46.4377 135.465 45.4741C135.465 44.4148 135.148 43.6846 134.514 43.2836C133.879 42.8826 132.913 42.6821 131.614 42.6821ZM152.14 54.9901H144.967V41.8652H152.14V42.7001H145.892V47.6735H151.79V48.5084H145.892V54.1552H152.14V54.9901ZM169.407 41.8652L164.559 54.9901H163.644L158.796 41.8652H159.765L163.356 51.5787C163.458 51.86 163.554 52.1353 163.644 52.4046C163.733 52.668 163.817 52.9223 163.895 53.1677C163.973 53.4131 164.042 53.6495 164.101 53.8769C164.161 53.6495 164.227 53.4191 164.299 53.1857C164.377 52.9463 164.46 52.6949 164.55 52.4316C164.64 52.1622 164.739 51.875 164.847 51.5697L168.428 41.8652H169.407ZM183.945 54.9901H176.772V41.8652H183.945V42.7001H177.697V47.6735H183.595V48.5084H177.697V54.1552H183.945V54.9901ZM195.637 41.8652C196.679 41.8652 197.546 41.9789 198.241 42.2063C198.941 42.4337 199.467 42.8078 199.821 43.3285C200.174 43.8492 200.35 44.5524 200.35 45.4382C200.35 46.1025 200.228 46.6741 199.982 47.1529C199.743 47.6257 199.411 48.0147 198.986 48.3199C198.561 48.6251 198.07 48.8586 197.513 49.0202L201.113 54.9901H200.018L196.634 49.2805H193.375V54.9901H192.45V41.8652H195.637ZM195.547 42.6821H193.375V48.4636H195.987C197.059 48.4636 197.893 48.2062 198.492 47.6915C199.096 47.1768 199.399 46.4377 199.399 45.4741C199.399 44.4148 199.081 43.6846 198.447 43.2836C197.813 42.8826 196.846 42.6821 195.547 42.6821ZM226.419 51.6056C226.419 52.3897 226.221 53.048 225.826 53.5807C225.431 54.1073 224.896 54.5053 224.219 54.7747C223.543 55.038 222.777 55.1697 221.921 55.1697C221.388 55.1697 220.904 55.1427 220.467 55.0889C220.036 55.041 219.644 54.9752 219.291 54.8914C218.944 54.8076 218.626 54.7118 218.339 54.6041V53.6794C218.806 53.859 219.345 54.0176 219.955 54.1552C220.572 54.2869 221.242 54.3527 221.966 54.3527C222.648 54.3527 223.253 54.254 223.779 54.0565C224.312 53.859 224.731 53.5597 225.036 53.1587C225.341 52.7577 225.494 52.252 225.494 51.6415C225.494 51.1029 225.365 50.663 225.108 50.3219C224.857 49.9747 224.477 49.6785 223.968 49.4331C223.459 49.1817 222.819 48.9274 222.047 48.67C221.508 48.4845 221.017 48.29 220.575 48.0865C220.138 47.877 219.764 47.6376 219.452 47.3683C219.141 47.093 218.902 46.7638 218.734 46.3808C218.573 45.9918 218.492 45.5339 218.492 45.0073C218.492 44.2831 218.674 43.6756 219.039 43.1849C219.41 42.6881 219.91 42.314 220.539 42.0627C221.173 41.8053 221.885 41.6767 222.675 41.6767C223.304 41.6767 223.899 41.7365 224.462 41.8562C225.03 41.9699 225.578 42.1435 226.105 42.3769L225.781 43.1759C225.255 42.9484 224.728 42.7809 224.201 42.6731C223.675 42.5654 223.154 42.5116 222.639 42.5116C222.023 42.5116 221.472 42.6043 220.987 42.7898C220.509 42.9694 220.129 43.2417 219.847 43.6068C219.566 43.9719 219.425 44.4327 219.425 44.9893C219.425 45.5639 219.554 46.0277 219.811 46.3808C220.075 46.7339 220.446 47.0272 220.925 47.2606C221.409 47.494 221.981 47.7214 222.639 47.9429C223.417 48.2062 224.088 48.4845 224.65 48.7778C225.213 49.065 225.647 49.4301 225.952 49.873C226.263 50.3159 226.419 50.8934 226.419 51.6056ZM238.174 54.9901H237.24V42.7001H232.985V41.8652H242.429V42.7001H238.174V54.9901ZM258.116 54.9901L256.33 50.3488H250.818L248.995 54.9901H248.052L253.214 41.8203H254.058L259.086 54.9901H258.116ZM256.033 49.5139L254.22 44.5943C254.172 44.4686 254.112 44.307 254.04 44.1095C253.975 43.912 253.903 43.7026 253.825 43.4811C253.753 43.2597 253.681 43.0502 253.609 42.8527C253.55 43.0622 253.484 43.2716 253.412 43.4811C253.34 43.6906 253.271 43.8941 253.205 44.0916C253.14 44.2831 253.077 44.4567 253.017 44.6123L251.132 49.5139H256.033ZM269.647 41.8652C270.688 41.8652 271.556 41.9789 272.25 42.2063C272.95 42.4337 273.477 42.8078 273.83 43.3285C274.183 43.8492 274.36 44.5524 274.36 45.4382C274.36 46.1025 274.237 46.6741 273.992 47.1529C273.752 47.6257 273.42 48.0147 272.995 48.3199C272.57 48.6251 272.08 48.8586 271.523 49.0202L275.123 54.9901H274.028L270.643 49.2805H267.384V54.9901H266.46V41.8652H269.647ZM269.557 42.6821H267.384V48.4636H269.997C271.068 48.4636 271.903 48.2062 272.501 47.6915C273.106 47.1768 273.408 46.4377 273.408 45.4741C273.408 44.4148 273.091 43.6846 272.457 43.2836C271.822 42.8826 270.856 42.6821 269.557 42.6821ZM286.339 54.9901H285.406V42.7001H281.15V41.8652H290.594V42.7001H286.339V54.9901ZM305.294 51.6056C305.294 52.3897 305.097 53.048 304.702 53.5807C304.307 54.1073 303.771 54.5053 303.095 54.7747C302.418 55.038 301.652 55.1697 300.796 55.1697C300.264 55.1697 299.779 55.1427 299.342 55.0889C298.911 55.041 298.519 54.9752 298.166 54.8914C297.819 54.8076 297.502 54.7118 297.214 54.6041V53.6794C297.681 53.859 298.22 54.0176 298.83 54.1552C299.447 54.2869 300.117 54.3527 300.841 54.3527C301.524 54.3527 302.128 54.254 302.655 54.0565C303.187 53.859 303.606 53.5597 303.912 53.1587C304.217 52.7577 304.369 52.252 304.369 51.6415C304.369 51.1029 304.241 50.663 303.983 50.3219C303.732 49.9747 303.352 49.6785 302.843 49.4331C302.335 49.1817 301.694 48.9274 300.922 48.67C300.383 48.4845 299.893 48.29 299.45 48.0865C299.013 47.877 298.639 47.6376 298.328 47.3683C298.016 47.093 297.777 46.7638 297.609 46.3808C297.448 45.9918 297.367 45.5339 297.367 45.0073C297.367 44.2831 297.55 43.6756 297.915 43.1849C298.286 42.6881 298.785 42.314 299.414 42.0627C300.048 41.8053 300.76 41.6767 301.55 41.6767C302.179 41.6767 302.774 41.7365 303.337 41.8562C303.906 41.9699 304.453 42.1435 304.98 42.3769L304.657 43.1759C304.13 42.9484 303.603 42.7809 303.077 42.6731C302.55 42.5654 302.029 42.5116 301.515 42.5116C300.898 42.5116 300.348 42.6043 299.863 42.7898C299.384 42.9694 299.004 43.2417 298.723 43.6068C298.441 43.9719 298.301 44.4327 298.301 44.9893C298.301 45.5639 298.429 46.0277 298.687 46.3808C298.95 46.7339 299.321 47.0272 299.8 47.2606C300.285 47.494 300.856 47.7214 301.515 47.9429C302.293 48.2062 302.963 48.4845 303.526 48.7778C304.088 49.065 304.522 49.4301 304.827 49.873C305.138 50.3159 305.294 50.8934 305.294 51.6056ZM333.463 54.9901H332.521L324.764 43.3824H324.719C324.731 43.7055 324.74 44.0347 324.746 44.3699C324.758 44.699 324.767 45.0402 324.773 45.3933C324.785 45.7404 324.791 46.0995 324.791 46.4706V54.9901H323.911V41.8652H324.863L332.592 53.437H332.637C332.631 53.1737 332.622 52.8685 332.61 52.5213C332.604 52.1742 332.595 51.8181 332.584 51.453C332.578 51.0879 332.575 50.7438 332.575 50.4206V41.8652H333.463V54.9901ZM353.738 48.4097C353.738 49.4092 353.615 50.3219 353.37 51.1478C353.124 51.9737 352.756 52.6859 352.266 53.2844C351.775 53.8829 351.161 54.3467 350.425 54.6759C349.695 55.0051 348.842 55.1697 347.867 55.1697C346.885 55.1697 346.026 55.0051 345.29 54.6759C344.554 54.3467 343.94 53.8829 343.45 53.2844C342.965 52.6799 342.6 51.9647 342.354 51.1388C342.109 50.3069 341.986 49.3912 341.986 48.3917C341.986 47.0631 342.211 45.893 342.66 44.8816C343.115 43.8701 343.782 43.0801 344.662 42.5116C345.547 41.943 346.64 41.6587 347.938 41.6587C349.183 41.6587 350.237 41.931 351.098 42.4756C351.966 43.0143 352.622 43.7893 353.065 44.8008C353.513 45.8063 353.738 47.0092 353.738 48.4097ZM342.956 48.4007C342.956 49.5738 343.133 50.6091 343.486 51.5069C343.839 52.3986 344.38 53.0959 345.111 53.5986C345.841 54.1014 346.762 54.3527 347.876 54.3527C349.001 54.3527 349.925 54.1043 350.65 53.6076C351.374 53.1108 351.909 52.4166 352.257 51.5248C352.604 50.6331 352.777 49.5947 352.777 48.4097C352.777 46.5364 352.367 45.0821 351.547 44.0467C350.733 43.0113 349.53 42.4936 347.938 42.4936C346.819 42.4936 345.889 42.742 345.146 43.2387C344.41 43.7355 343.86 44.4267 343.495 45.3125C343.136 46.1983 342.956 47.2277 342.956 48.4007ZM376.382 41.8652L372.8 54.9901H371.903L369.093 45.0791C369.027 44.8696 368.967 44.6721 368.913 44.4866C368.865 44.2951 368.817 44.1155 368.77 43.9479C368.728 43.7744 368.686 43.6128 368.644 43.4632C368.608 43.3075 368.578 43.1669 368.554 43.0412C368.53 43.1669 368.503 43.3016 368.473 43.4452C368.449 43.5829 368.419 43.7265 368.384 43.8761C368.348 44.0257 368.309 44.1813 368.267 44.3429C368.225 44.5045 368.18 44.6721 368.132 44.8457L365.331 54.9901H364.425L360.887 41.8652H361.839L364.308 51.1209C364.374 51.3662 364.433 51.5997 364.487 51.8211C364.547 52.0425 364.601 52.258 364.649 52.4675C364.697 52.671 364.742 52.8715 364.784 53.069C364.831 53.2605 364.873 53.455 364.909 53.6525C364.951 53.455 364.993 53.2545 365.035 53.051C365.077 52.8475 365.122 52.641 365.17 52.4316C365.223 52.2221 365.277 52.0066 365.331 51.7852C365.391 51.5578 365.457 51.3214 365.529 51.076L368.105 41.8652H369.03L371.705 51.1298C371.777 51.3872 371.843 51.6296 371.903 51.857C371.963 52.0844 372.016 52.3029 372.064 52.5124C372.112 52.7158 372.157 52.9163 372.199 53.1138C372.241 53.3054 372.283 53.4999 372.325 53.6974C372.372 53.428 372.42 53.1647 372.468 52.9074C372.522 52.644 372.585 52.3687 372.657 52.0814C372.729 51.7942 372.809 51.48 372.899 51.1388L375.422 41.8652H376.382Z" fill="#082447"/>
<defs>
<clipPath id="clip0_2520_11110">
<rect width="58.8991" height="60" fill="white" transform="translate(0 0.499146)"/>
</clipPath>
<clipPath id="clip1_2520_11110">
<rect width="291.873" height="33.324" fill="white" transform="translate(88.6448 0.622437)"/>
</clipPath>
</defs>
</svg>
