<svg width="37" height="43" viewBox="0 0 37 43" fill="none" xmlns="http://www.w3.org/2000/svg">
<path fill-rule="evenodd" clip-rule="evenodd" d="M17.1875 21.9871H18.5193C18.4502 19.802 18.3999 15.8765 18.5193 13.8332C18.5821 12.6536 18.959 11.6931 19.7002 10.7907C20.3347 10.0172 20.944 9.40489 21.6665 8.77964C22.9731 7.64518 25.2094 6.29156 26.5223 5.73722C26.8615 5.59541 27.251 5.763 27.3892 6.11108C27.5274 6.45915 27.3641 6.85879 27.0249 7.0006C25.9946 7.43891 24.1101 8.42512 23.1804 9.14061C22.8851 9.36621 22.5962 9.61115 22.3072 9.86254C30.4045 13.4206 34.1359 9.2244 35.744 0.819066C35.832 0.348522 35.43 -0.102685 34.9148 0.0262311C31.2462 0.819066 28.677 0.928645 26.8238 1.01244C24.7634 1.10268 23.5259 1.15425 22.5396 2.03088C21.9931 2.52076 21.5848 3.22335 21.2393 4.29336C20.9378 5.228 20.6676 6.4656 20.3724 8.11572C19.7693 8.67006 19.204 9.26952 18.67 9.9141C17.7466 11.0357 17.2566 12.2991 17.1749 13.7687C17.1435 14.2844 17.131 14.8645 17.1184 15.4962C16.5719 14.8194 15.9877 14.1812 15.3721 13.6076C14.5491 12.9952 13.6822 12.4666 12.7902 12.0283C11.4522 11.3709 10.0576 10.9261 8.6819 10.7392C8.31756 10.694 8.06 10.346 8.11026 9.97212C8.15423 9.59826 8.49345 9.33398 8.85779 9.38555C10.9999 9.66916 13.1232 10.52 15.0077 11.7125C14.7816 10.6618 14.5554 9.83675 14.2916 9.19217C13.2676 6.63319 11.5967 6.6203 8.92061 6.50427C7.06747 6.42692 4.50448 6.3109 0.82961 5.51806C0.314499 5.38915 -0.087538 5.84035 0.000407679 6.3109C0.886146 10.9261 2.36866 14.149 4.78716 15.6638C7.15542 17.1463 10.334 16.9529 14.6245 14.7871C15.5417 15.6638 16.3834 16.6693 17.1121 17.7587C17.1184 18.4032 17.131 20.1307 17.1435 20.8011C17.1561 21.1943 17.1624 21.5939 17.1749 21.9871H17.1875ZM19.116 35.9165C17.9162 30.921 20.8875 25.8739 25.7559 24.6428C30.6243 23.4116 35.5367 26.4605 36.7366 31.456C37.9364 36.4515 34.9651 41.4986 30.0967 42.7297C25.2283 43.9609 20.3159 40.912 19.116 35.9165ZM28.6079 27.5241C28.6079 27.1373 28.3001 26.8215 27.9232 26.8215C27.5462 26.8215 27.2384 27.1373 27.2384 27.5241V28.4329C24.7885 28.9421 23.8777 31.8492 25.6994 33.5316C26.114 33.9183 26.6479 34.1955 27.2384 34.3179V37.4893C26.8301 37.341 26.4783 37.0574 26.2773 36.6836C26.0951 36.3484 25.6805 36.2195 25.3539 36.4064C25.021 36.5933 24.9016 37.0187 25.0838 37.3604C25.5235 38.1854 26.3276 38.7527 27.2384 38.946V39.8549C27.2384 40.2416 27.5462 40.5575 27.9232 40.5575C28.3001 40.5575 28.6079 40.2416 28.6079 39.8549V38.946C31.0578 38.4368 31.9687 35.5298 30.1469 33.8474C29.7323 33.4606 29.1984 33.1835 28.6079 33.061V29.8897C29.0413 30.0444 29.4182 30.3602 29.6067 30.7663C29.77 31.1144 30.1783 31.2626 30.5176 31.095C30.8568 30.9274 31.0013 30.5085 30.8379 30.1604C30.417 29.258 29.5753 28.6327 28.6079 28.4329V27.5241ZM27.2384 29.8832C25.7371 30.4247 25.7371 32.3262 27.2384 32.8676V29.8832ZM28.6079 37.4957C30.1092 36.9543 30.1092 35.0528 28.6079 34.5113V37.4957ZM25.0084 23.3987L8.08513 23.3858C7.77104 23.3858 7.51348 23.6501 7.51348 23.9724V28.3362C7.51348 28.6585 7.77104 28.9228 8.08513 28.9228H18.5695C19.8761 26.2285 22.2004 24.2367 25.0084 23.3987ZM18.1549 37.4764H8.08513C7.77104 37.4764 7.51348 37.7407 7.51348 38.063V42.4268C7.51348 42.7491 7.77104 43.0133 8.08513 43.0133H22.7658C20.6299 41.7693 19.0092 39.8162 18.1549 37.4828V37.4764ZM17.6963 35.8585C17.3194 34.0021 17.4388 32.1006 18.0104 30.328H4.73063C4.41654 30.328 4.15898 30.5923 4.15898 30.9146V35.2784C4.15898 35.6007 4.41654 35.8649 4.73063 35.8649H17.7026L17.6963 35.8585Z" fill="#27AE60"/>
</svg>
