<svg width="16" height="16" viewBox="0 0 16 16" fill="none" xmlns="http://www.w3.org/2000/svg">
<g clip-path="url(#clip0_1410_121)">
<path d="M14.0784 1.92703C12.5761 0.429923 10.1478 0.429923 8.64556 1.92703L6.50022 4.06722C6.66999 4.04664 6.83977 4.0415 7.01469 4.0415C7.55488 4.0415 8.08478 4.12896 8.58382 4.29359L9.79797 3.07944C10.2147 2.66272 10.7703 2.43121 11.362 2.43121C11.9536 2.43121 12.5041 2.66272 12.9259 3.07944C13.3427 3.49616 13.5742 4.05179 13.5742 4.63828C13.5742 5.22478 13.3427 5.78041 12.9259 6.19713L10.5491 8.57397C10.1324 8.99069 9.57675 9.22221 8.98511 9.22221C8.39347 9.22221 7.84298 8.99069 7.42112 8.57397C7.22048 8.37333 7.06099 8.13668 6.95295 7.87944C6.68028 7.89487 6.42819 8.00806 6.23784 8.19841L5.60504 8.83121C5.77996 9.15018 6.00118 9.45372 6.27385 9.72639C7.77096 11.2235 10.2044 11.2235 11.7066 9.72639L14.0835 7.34954C15.5806 5.85243 15.5806 3.41899 14.0835 1.91674L14.0784 1.92703Z" fill="#082447"/>
<path d="M9.01084 11.9589C8.4655 11.9589 7.9356 11.8714 7.42628 11.6965L6.20184 12.9209C5.78512 13.3376 5.22949 13.5691 4.643 13.5691C4.0565 13.5691 3.50087 13.3376 3.08415 12.9209C2.66743 12.5042 2.43592 11.9486 2.43592 11.3621C2.43592 10.7756 2.66743 10.22 3.08415 9.79809L5.461 7.42124C5.87772 7.00452 6.43335 6.77301 7.01985 6.77301C7.60634 6.77301 8.16197 7.00452 8.58383 7.42124C8.78448 7.62188 8.94396 7.85854 9.05714 8.11577C9.32981 8.10034 9.5819 7.98715 9.7774 7.7968L10.4102 7.164C10.2353 6.83989 10.0141 6.54149 9.74139 6.26883C8.24428 4.77172 5.81084 4.77172 4.30859 6.26883L1.93174 8.64567C0.429491 10.1428 0.429491 12.5762 1.93174 14.0785C3.42885 15.5756 5.86229 15.5756 7.36454 14.0785L9.50473 11.9383C9.34525 11.9537 9.18576 11.9589 9.02113 11.9589H9.01084Z" fill="#082447"/>
</g>
<defs>
<clipPath id="clip0_1410_121">
<rect width="14.4" height="14.4" fill="white" transform="translate(0.799988 0.799805)"/>
</clipPath>
</defs>
</svg>
