<svg width="12" height="12" viewBox="0 0 12 12" fill="none" xmlns="http://www.w3.org/2000/svg">
<g clip-path="url(#clip0_1390_1318)">
<path fill-rule="evenodd" clip-rule="evenodd" d="M6 0C9.31343 0 12 2.68657 12 6C12 9.31343 9.31343 12 6 12C2.68657 12 0 9.31343 0 6C0 2.68657 2.68657 0 6 0ZM6.45758 2.21182C7.02188 2.21182 7.47945 2.66939 7.47945 3.23369C7.47945 3.798 7.02188 4.25434 6.45758 4.25434C5.89327 4.25434 5.43692 3.79677 5.43692 3.23369C5.43692 2.67062 5.89327 2.21182 6.45758 2.21182ZM4.72541 4.82355H6.85872C7.1973 4.82355 7.29176 5.11307 7.2292 5.33511C7.16541 5.55592 6.56308 8.743 6.7753 9.10243C6.9863 9.46187 7.47577 8.86567 7.64506 8.85586C7.81313 8.84482 7.94071 9.00061 7.8487 9.24719C7.7567 9.49254 7.21816 10.036 6.08465 10.036C4.95113 10.036 4.56348 9.09139 4.75363 8.11981C4.94377 7.14823 5.20016 5.94357 5.21488 5.77796C5.22838 5.61235 5.2063 5.39767 4.93519 5.40012C4.83705 5.40012 4.74136 5.39767 4.6604 5.38295C4.26784 5.30934 4.37089 4.81374 4.72541 4.82355Z" fill="#828282"/>
</g>
<defs>
<clipPath id="clip0_1390_1318">
<rect width="12" height="12" fill="white"/>
</clipPath>
</defs>
</svg>
