<svg width="33" height="34" viewBox="0 0 33 34" fill="none" xmlns="http://www.w3.org/2000/svg">
<g clip-path="url(#clip0_540_975)">
<path d="M22.0694 12.584L23.7301 10.9233C25.1184 11.8044 26.9767 11.6335 28.1621 10.416C29.5505 9.02767 29.5505 6.72621 28.1621 5.33786C26.7738 3.94951 24.4723 3.94951 23.084 5.33786C21.8665 6.55534 21.6956 8.38155 22.5767 9.7699L20.916 11.4306C21.3539 11.767 21.7277 12.1408 22.0694 12.584ZM24.4723 6.69417C25.1131 6.0534 26.165 6.0534 26.8058 6.69417C27.4466 7.33495 27.4466 8.38689 26.8058 9.02767C26.165 9.66845 25.1131 9.66845 24.4723 9.02767C23.8316 8.38689 23.8316 7.33495 24.4723 6.69417ZM16.516 0.5C14.551 0.5 12.9277 2.1233 12.9277 4.08835C12.9277 5.78107 14.1131 7.23349 15.7044 7.57524V9.94612C15.9767 9.91408 16.2437 9.91408 16.516 9.91408C16.7883 9.91408 17.0553 9.91408 17.3277 9.94612V7.57524C18.9189 7.20146 20.1044 5.78107 20.1044 4.08835C20.1044 2.09126 18.4811 0.5 16.516 0.5ZM16.516 5.74369C15.6029 5.74369 14.8553 5.00146 14.8553 4.08301C14.8553 3.16456 15.5976 2.42233 16.516 2.42233C17.4345 2.42233 18.1767 3.16456 18.1767 4.08301C18.1767 5.00146 17.4345 5.74369 16.516 5.74369ZM29.4116 13.3903C27.7189 13.3903 26.2665 14.5757 25.9248 16.167H23.5539C23.5859 16.4393 23.5859 16.7063 23.5859 16.9786C23.5859 17.251 23.5859 17.518 23.5539 17.7903H25.9248C26.2985 19.3816 27.7189 20.567 29.4116 20.567C31.3767 20.567 33 18.9437 33 16.9786C33.032 15.0136 31.4087 13.3903 29.4116 13.3903ZM29.4116 18.634C28.4985 18.634 27.751 17.8917 27.751 16.9733C27.751 16.0549 28.4932 15.3126 29.4116 15.3126C30.3301 15.3126 31.0723 16.0549 31.0723 16.9733C31.0723 17.8917 30.3301 18.634 29.4116 18.634ZM16.516 24.0806C16.2437 24.0806 15.9767 24.0806 15.7044 24.0485V26.4194C14.1131 26.7932 12.9277 28.2136 12.9277 29.9063C12.9277 31.8714 14.551 33.4947 16.516 33.4947C18.4811 33.4947 20.1044 31.8714 20.1044 29.8743C20.1044 28.1816 18.9189 26.7291 17.3277 26.3874V24.0165C17.0553 24.0485 16.7883 24.0859 16.516 24.0859V24.0806ZM18.1767 29.8689C18.1767 30.782 17.4345 31.5296 16.516 31.5296C15.5976 31.5296 14.8553 30.7874 14.8553 29.8689C14.8553 28.9505 15.5976 28.2083 16.516 28.2083C17.4345 28.2083 18.1767 28.9505 18.1767 29.8689ZM23.116 28.6515C24.5044 30.0398 26.8058 30.0398 28.1942 28.6515C29.5825 27.2631 29.5825 24.9616 28.1942 23.5733C26.9767 22.3558 25.1505 22.1849 23.7621 23.066L22.0694 21.3733C21.733 21.7791 21.3592 22.1849 20.916 22.5267L22.5767 24.1874C21.733 25.5757 21.8985 27.434 23.116 28.6568V28.6515ZM24.4723 24.9296C25.1131 24.2888 26.165 24.2888 26.8058 24.9296C27.4466 25.5704 27.4466 26.6223 26.8058 27.2631C26.165 27.9039 25.1131 27.9039 24.4723 27.2631C23.8316 26.6223 23.8316 25.5704 24.4723 24.9296ZM0 16.984C0 18.949 1.6233 20.5723 3.58835 20.5723C5.28107 20.5723 6.73349 19.3869 7.07524 17.7956H9.44612C9.44612 17.5233 9.41408 17.2563 9.41408 16.984C9.41408 16.7117 9.41408 16.4447 9.44612 16.1723H7.07524C6.70146 14.5811 5.28107 13.3956 3.58835 13.3956C1.6233 13.3956 0 15.0189 0 16.984ZM5.28107 16.984C5.28107 17.8971 4.53883 18.6447 3.62039 18.6447C2.70194 18.6447 1.92767 17.9024 1.92767 16.984C1.92767 16.0655 2.6699 15.3233 3.58835 15.3233C4.5068 15.3233 5.28107 16.0655 5.28107 16.984ZM10.968 21.384L9.30728 23.0767C7.91893 22.1956 6.06068 22.3665 4.87524 23.584C3.48689 24.9723 3.48689 27.2738 4.87524 28.6621C6.26359 30.0505 8.56505 30.0505 9.9534 28.6621C11.1709 27.4447 11.3417 25.6184 10.4607 24.2301L12.1214 22.5694C11.6835 22.1956 11.3097 21.8272 10.968 21.384ZM8.56505 27.2738C7.92427 27.9146 6.87233 27.9146 6.23155 27.2738C5.59078 26.633 5.59078 25.5811 6.23155 24.9403C6.87233 24.2995 7.92427 24.2995 8.56505 24.9403C9.20582 25.5811 9.20582 26.633 8.56505 27.2738ZM9.92136 5.30582C8.53301 3.91748 6.23155 3.91748 4.8432 5.30582C3.45485 6.69417 3.45485 8.99563 4.8432 10.384C6.06068 11.6015 7.88689 11.7723 9.27524 10.8913L10.9359 12.5519C11.2723 12.1461 11.6461 11.7403 12.0893 11.3985L10.4286 9.77524C11.3097 8.38689 11.1388 6.52864 9.92136 5.30582ZM8.56505 9.02767C7.92427 9.66845 6.87233 9.66845 6.23155 9.02767C5.59078 8.38689 5.59078 7.33495 6.23155 6.69417C6.87233 6.0534 7.92427 6.0534 8.56505 6.69417C9.20582 7.33495 9.20582 8.38689 8.56505 9.02767ZM16.5214 11.4306C13.4777 11.4306 10.9733 13.9029 10.9733 16.9786C10.9733 20.0544 13.4777 22.5267 16.5214 22.5267C19.565 22.5267 22.0694 20.0544 22.0694 16.9786C22.0694 13.9029 19.565 11.4306 16.5214 11.4306ZM18.1126 19.1786C17.8777 19.483 17.5733 19.6859 17.1995 19.7553C17.0286 19.7874 16.9646 19.8888 16.9646 20.0597V20.567C16.9646 20.7005 16.8951 20.8019 16.7616 20.8019H16.2223C16.0515 20.8019 15.9874 20.7005 15.9874 20.567V20.1932C15.9874 20.0117 15.8966 19.9102 15.715 19.8888C15.3786 19.8194 15.0743 19.7553 14.7699 19.6165C14.535 19.515 14.4976 19.4456 14.567 19.2107C14.599 19.0398 14.6684 18.8369 14.7379 18.6714C14.8073 18.4684 14.8714 18.4364 15.0422 18.5379C15.3786 18.7087 15.7204 18.8102 16.0888 18.8422C16.3238 18.8743 16.5641 18.8422 16.767 18.7408C17.1728 18.5699 17.2422 18.1 16.9005 17.7956C16.799 17.6942 16.6655 17.6248 16.4947 17.5607C16.1209 17.3898 15.7524 17.2883 15.4107 17.0854C14.8714 16.749 14.5296 16.3058 14.567 15.6277C14.599 14.8854 15.0422 14.4102 15.7204 14.1379C15.9019 14.0702 16.0034 13.935 16.0248 13.732V13.4277C16.0248 13.1927 16.0568 13.1553 16.2971 13.1553H16.5C16.8168 13.1553 16.9752 13.3138 16.9752 13.6306C16.9752 13.8549 17.0874 13.9901 17.3116 14.0364C17.584 14.0684 17.8189 14.1379 18.0539 14.2714C18.1874 14.3408 18.2248 14.4049 18.1874 14.5437C18.118 14.7466 18.0859 14.9495 18.0165 15.1524C17.9471 15.3553 17.883 15.3874 17.7121 15.2859C17.3383 15.115 16.9699 15.0136 16.5267 15.051C16.4252 15.051 16.3238 15.083 16.2223 15.1204C15.8859 15.2913 15.8165 15.6597 16.1209 15.9C16.2917 16.0335 16.4573 16.1029 16.6282 16.1723C16.9325 16.3058 17.2689 16.4447 17.5413 16.5782C18.5238 17.1549 18.7961 18.3723 18.118 19.184L18.1126 19.1786Z" fill="#F2994A"/>
</g>
<defs>
<clipPath id="clip0_540_975">
<rect width="33" height="33" fill="white" transform="translate(0 0.5)"/>
</clipPath>
</defs>
</svg>
