<svg width="14" height="14" viewBox="0 0 14 14" fill="none" xmlns="http://www.w3.org/2000/svg">
<g clip-path="url(#clip0_1804_19)">
<path d="M7.92011 0.059779C6.48011 -0.130221 5.09011 0.129779 3.88011 0.729779C1.87011 1.73978 0.380108 3.68978 0.0601082 6.08978C-0.259892 8.47978 0.680108 10.7598 2.36011 12.2398C3.37011 13.1298 4.65011 13.7498 6.09011 13.9398C9.92011 14.4498 13.4401 11.7498 13.9501 7.92978C14.4401 4.08978 11.7501 0.569779 7.92011 0.059779ZM10.1101 5.37978L8.25011 7.20978L10.1301 9.07978C10.4801 9.41978 10.4801 9.97978 10.1301 10.3298C9.96011 10.4998 9.74011 10.5898 9.50011 10.5898C9.27011 10.5898 9.04011 10.4998 8.87011 10.3298L7.00011 8.48978L5.13011 10.3698C4.96011 10.5398 4.74011 10.6298 4.50011 10.6298C4.27011 10.6298 4.04011 10.5398 3.87011 10.3698C3.52011 10.0298 3.52011 9.46978 3.87011 9.11978L5.75011 7.20978L3.87011 5.33978C3.52011 4.98978 3.52011 4.42978 3.87011 4.08978C4.22011 3.74978 4.78011 3.73978 5.12011 4.08978L6.99011 5.99978L8.86011 4.11978C9.21011 3.76978 9.77011 3.76978 10.1101 4.11978C10.4501 4.46978 10.4601 5.02978 10.1101 5.36978H10.0901L10.1101 5.37978Z" fill="#EB5757"/>
</g>
<defs>
<clipPath id="clip0_1804_19">
<rect width="14" height="14" fill="white"/>
</clipPath>
</defs>
</svg>
